<?xml version="1.0" encoding="UTF-8" standalone="no"?>
<!DOCTYPE svg PUBLIC "-//W3C//DTD SVG 1.1//EN"
 "http://www.w3.org/Graphics/SVG/1.1/DTD/svg11.dtd">
<!-- Generated by graphviz version 2.40.1 (20161225.0304)
 -->
<!-- Title: G Pages: 1 -->
<svg width="342pt" height="261pt"
 viewBox="0.00 0.00 342.09 261.00" xmlns="http://www.w3.org/2000/svg" xmlns:xlink="http://www.w3.org/1999/xlink">
<g id="graph0" class="graph" transform="scale(1 1) rotate(0) translate(4 257)">
<title>G</title>
<polygon fill="#ffffff" stroke="transparent" points="-4,4 -4,-257 338.0877,-257 338.0877,4 -4,4"/>
<g id="clust1" class="cluster">
<title>cluster_1</title>
<polygon fill="#d3d3d3" stroke="#d3d3d3" points="8,-8 8,-245 85.0946,-245 85.0946,-8 8,-8"/>
<text text-anchor="middle" x="46.5473" y="-229.8" font-family="Times,serif" font-size="14.00" fill="#000000">Layer 0</text>
</g>
<g id="clust2" class="cluster">
<title>cluster_2</title>
<polygon fill="#d3d3d3" stroke="#d3d3d3" points="105.0946,-8 105.0946,-245 199.0877,-245 199.0877,-8 105.0946,-8"/>
<text text-anchor="middle" x="152.0911" y="-229.8" font-family="Times,serif" font-size="14.00" fill="#000000">Layer 1: relu</text>
</g>
<g id="clust3" class="cluster">
<title>cluster_3</title>
<polygon fill="#d3d3d3" stroke="#d3d3d3" points="219.0877,-89 219.0877,-164 334.0877,-164 334.0877,-89 219.0877,-89"/>
<text text-anchor="middle" x="276.5877" y="-148.8" font-family="Times,serif" font-size="14.00" fill="#000000">Layer 2: sigmoid</text>
</g>
<!-- x1 -->
<g id="node1" class="node">
<title>x1</title>
<ellipse fill="none" stroke="#000000" cx="46.5473" cy="-196" rx="27" ry="18"/>
<text text-anchor="middle" x="46.5473" y="-192.3" font-family="Times,serif" font-size="14.00" fill="#000000">x1</text>
</g>
<!-- node1 -->
<g id="node5" class="node">
<title>node1</title>
<ellipse fill="none" stroke="#000000" cx="152.0911" cy="-196" rx="34.394" ry="18"/>
<text text-anchor="middle" x="152.0911" y="-192.3" font-family="Times,serif" font-size="14.00" fill="#000000">node1</text>
</g>
<!-- x1&#45;&gt;node1 -->
<g id="edge1" class="edge">
<title>x1&#45;&gt;node1</title>
<path fill="none" stroke="#000000" d="M73.7274,-196C83.9217,-196 95.7972,-196 107.1744,-196"/>
<polygon fill="#000000" stroke="#000000" points="107.4202,-199.5001 117.4202,-196 107.4202,-192.5001 107.4202,-199.5001"/>
</g>
<!-- node2 -->
<g id="node6" class="node">
<title>node2</title>
<ellipse fill="none" stroke="#000000" cx="152.0911" cy="-142" rx="34.394" ry="18"/>
<text text-anchor="middle" x="152.0911" y="-138.3" font-family="Times,serif" font-size="14.00" fill="#000000">node2</text>
</g>
<!-- x1&#45;&gt;node2 -->
<g id="edge5" class="edge">
<title>x1&#45;&gt;node2</title>
<path fill="none" stroke="#000000" d="M68.1603,-184.942C82.4781,-177.6165 101.5634,-167.8518 117.9166,-159.4849"/>
<polygon fill="#000000" stroke="#000000" points="119.8644,-162.4199 127.1727,-154.7492 116.676,-156.1882 119.8644,-162.4199"/>
</g>
<!-- ... -->
<g id="node7" class="node">
<title>...</title>
<ellipse fill="none" stroke="#000000" cx="152.0911" cy="-88" rx="27" ry="18"/>
<text text-anchor="middle" x="152.0911" y="-84.3" font-family="Times,serif" font-size="14.00" fill="#000000">...</text>
</g>
<!-- x1&#45;&gt;... -->
<g id="edge9" class="edge">
<title>x1&#45;&gt;...</title>
<path fill="none" stroke="#000000" d="M61.6691,-180.5262C79.6401,-162.1371 109.7657,-131.3104 130.2622,-110.3369"/>
<polygon fill="#000000" stroke="#000000" points="132.8515,-112.6951 137.3376,-103.0969 127.8451,-107.8026 132.8515,-112.6951"/>
</g>
<!-- node30 -->
<g id="node8" class="node">
<title>node30</title>
<ellipse fill="none" stroke="#000000" cx="152.0911" cy="-34" rx="38.9931" ry="18"/>
<text text-anchor="middle" x="152.0911" y="-30.3" font-family="Times,serif" font-size="14.00" fill="#000000">node30</text>
</g>
<!-- x1&#45;&gt;node30 -->
<g id="edge13" class="edge">
<title>x1&#45;&gt;node30</title>
<path fill="none" stroke="#000000" d="M57.4448,-179.2733C75.8352,-151.0458 113.1612,-93.7539 135.0423,-60.1684"/>
<polygon fill="#000000" stroke="#000000" points="138.2495,-61.6573 140.7757,-51.3681 132.3844,-57.8362 138.2495,-61.6573"/>
</g>
<!-- x2 -->
<g id="node2" class="node">
<title>x2</title>
<ellipse fill="none" stroke="#000000" cx="46.5473" cy="-142" rx="27" ry="18"/>
<text text-anchor="middle" x="46.5473" y="-138.3" font-family="Times,serif" font-size="14.00" fill="#000000">x2</text>
</g>
<!-- x2&#45;&gt;node1 -->
<g id="edge2" class="edge">
<title>x2&#45;&gt;node1</title>
<path fill="none" stroke="#000000" d="M68.1603,-153.058C82.4781,-160.3835 101.5634,-170.1482 117.9166,-178.5151"/>
<polygon fill="#000000" stroke="#000000" points="116.676,-181.8118 127.1727,-183.2508 119.8644,-175.5801 116.676,-181.8118"/>
</g>
<!-- x2&#45;&gt;node2 -->
<g id="edge6" class="edge">
<title>x2&#45;&gt;node2</title>
<path fill="none" stroke="#000000" d="M73.7274,-142C83.9217,-142 95.7972,-142 107.1744,-142"/>
<polygon fill="#000000" stroke="#000000" points="107.4202,-145.5001 117.4202,-142 107.4202,-138.5001 107.4202,-145.5001"/>
</g>
<!-- x2&#45;&gt;... -->
<g id="edge10" class="edge">
<title>x2&#45;&gt;...</title>
<path fill="none" stroke="#000000" d="M68.1603,-130.942C83.5278,-123.0794 104.3876,-112.4068 121.4665,-103.6686"/>
<polygon fill="#000000" stroke="#000000" points="123.1987,-106.714 130.507,-99.0432 120.0103,-100.4822 123.1987,-106.714"/>
</g>
<!-- x2&#45;&gt;node30 -->
<g id="edge14" class="edge">
<title>x2&#45;&gt;node30</title>
<path fill="none" stroke="#000000" d="M61.6691,-126.5262C79.2339,-108.5527 108.4103,-78.6974 128.8581,-57.7737"/>
<polygon fill="#000000" stroke="#000000" points="131.4729,-60.1058 135.959,-50.5076 126.4665,-55.2133 131.4729,-60.1058"/>
</g>
<!-- .. -->
<g id="node3" class="node">
<title>..</title>
<ellipse fill="none" stroke="#000000" cx="46.5473" cy="-88" rx="27" ry="18"/>
<text text-anchor="middle" x="46.5473" y="-84.3" font-family="Times,serif" font-size="14.00" fill="#000000">..</text>
</g>
<!-- ..&#45;&gt;node1 -->
<g id="edge3" class="edge">
<title>..&#45;&gt;node1</title>
<path fill="none" stroke="#000000" d="M61.6691,-103.4738C79.3355,-121.5512 108.7479,-151.6482 129.2118,-172.5883"/>
<polygon fill="#000000" stroke="#000000" points="126.8155,-175.1439 136.308,-179.8496 131.8218,-170.2513 126.8155,-175.1439"/>
</g>
<!-- ..&#45;&gt;node2 -->
<g id="edge7" class="edge">
<title>..&#45;&gt;node2</title>
<path fill="none" stroke="#000000" d="M68.1603,-99.058C82.4781,-106.3835 101.5634,-116.1482 117.9166,-124.5151"/>
<polygon fill="#000000" stroke="#000000" points="116.676,-127.8118 127.1727,-129.2508 119.8644,-121.5801 116.676,-127.8118"/>
</g>
<!-- ..&#45;&gt;... -->
<g id="edge11" class="edge">
<title>..&#45;&gt;...</title>
<path fill="none" stroke="#000000" d="M73.7274,-88C86.2847,-88 101.3928,-88 114.9783,-88"/>
<polygon fill="#000000" stroke="#000000" points="115.0031,-91.5001 125.0031,-88 115.003,-84.5001 115.0031,-91.5001"/>
</g>
<!-- ..&#45;&gt;node30 -->
<g id="edge15" class="edge">
<title>..&#45;&gt;node30</title>
<path fill="none" stroke="#000000" d="M68.1603,-76.942C82.0748,-69.8229 100.4919,-60.4 116.5283,-52.1952"/>
<polygon fill="#000000" stroke="#000000" points="118.3348,-55.2025 125.6431,-47.5318 115.1464,-48.9708 118.3348,-55.2025"/>
</g>
<!-- x784 -->
<g id="node4" class="node">
<title>x784</title>
<ellipse fill="none" stroke="#000000" cx="46.5473" cy="-34" rx="30.5947" ry="18"/>
<text text-anchor="middle" x="46.5473" y="-30.3" font-family="Times,serif" font-size="14.00" fill="#000000">x784</text>
</g>
<!-- x784&#45;&gt;node1 -->
<g id="edge4" class="edge">
<title>x784&#45;&gt;node1</title>
<path fill="none" stroke="#000000" d="M57.6428,-51.0306C76.123,-79.396 113.3242,-136.4964 135.1169,-169.9461"/>
<polygon fill="#000000" stroke="#000000" points="132.4352,-172.2418 140.8266,-178.71 138.3003,-168.4207 132.4352,-172.2418"/>
</g>
<!-- x784&#45;&gt;node2 -->
<g id="edge8" class="edge">
<title>x784&#45;&gt;node2</title>
<path fill="none" stroke="#000000" d="M62.1206,-49.9358C79.7907,-68.0171 108.7821,-97.6831 129.0659,-118.439"/>
<polygon fill="#000000" stroke="#000000" points="126.6154,-120.9391 136.1079,-125.6448 131.6217,-116.0466 126.6154,-120.9391"/>
</g>
<!-- x784&#45;&gt;... -->
<g id="edge12" class="edge">
<title>x784&#45;&gt;...</title>
<path fill="none" stroke="#000000" d="M69.7093,-45.8505C84.8255,-53.5845 104.734,-63.7704 121.1932,-72.1915"/>
<polygon fill="#000000" stroke="#000000" points="119.9265,-75.4749 130.4232,-76.9139 123.115,-69.2432 119.9265,-75.4749"/>
</g>
<!-- x784&#45;&gt;node30 -->
<g id="edge16" class="edge">
<title>x784&#45;&gt;node30</title>
<path fill="none" stroke="#000000" d="M77.3587,-34C85.318,-34 94.0885,-34 102.7361,-34"/>
<polygon fill="#000000" stroke="#000000" points="102.7753,-37.5001 112.7753,-34 102.7752,-30.5001 102.7753,-37.5001"/>
</g>
<!-- y -->
<g id="node9" class="node">
<title>y</title>
<ellipse fill="none" stroke="#000000" cx="276.0877" cy="-115" rx="27" ry="18"/>
<text text-anchor="middle" x="276.0877" y="-111.3" font-family="Times,serif" font-size="14.00" fill="#000000">y</text>
</g>
<!-- node1&#45;&gt;y -->
<g id="edge17" class="edge">
<title>node1&#45;&gt;y</title>
<path fill="none" stroke="#000000" d="M173.6897,-181.8909C194.3939,-168.3659 225.7449,-147.8861 248.3008,-133.1516"/>
<polygon fill="#000000" stroke="#000000" points="250.3149,-136.0166 256.7728,-127.6173 246.4866,-130.1561 250.3149,-136.0166"/>
</g>
<!-- node2&#45;&gt;y -->
<g id="edge18" class="edge">
<title>node2&#45;&gt;y</title>
<path fill="none" stroke="#000000" d="M184.0233,-135.0468C201.1787,-131.3113 222.3866,-126.6933 240.1217,-122.8315"/>
<polygon fill="#000000" stroke="#000000" points="241.0794,-126.2051 250.1057,-120.6575 239.59,-119.3654 241.0794,-126.2051"/>
</g>
<!-- ...&#45;&gt;y -->
<g id="edge19" class="edge">
<title>...&#45;&gt;y</title>
<path fill="none" stroke="#000000" d="M177.7833,-93.5944C195.7845,-97.5141 220.0905,-102.8067 240.0296,-107.1484"/>
<polygon fill="#000000" stroke="#000000" points="239.4861,-110.612 250.0018,-109.3199 240.9755,-103.7723 239.4861,-110.612"/>
</g>
<!-- node30&#45;&gt;y -->
<g id="edge20" class="edge">
<title>node30&#45;&gt;y</title>
<path fill="none" stroke="#000000" d="M174.834,-48.8566C195.4809,-62.3441 225.9951,-82.2774 248.1253,-96.7338"/>
<polygon fill="#000000" stroke="#000000" points="246.4611,-99.8272 256.7472,-102.366 250.2894,-93.9668 246.4611,-99.8272"/>
</g>
</g>
</svg>
