<?xml version="1.0" encoding="UTF-8" standalone="no"?>
<!DOCTYPE svg PUBLIC "-//W3C//DTD SVG 1.1//EN"
 "http://www.w3.org/Graphics/SVG/1.1/DTD/svg11.dtd">
<!-- Generated by graphviz version 2.43.0 (0)
 -->
<!-- Title: G Pages: 1 -->
<svg width="398pt" height="44pt"
 viewBox="0.00 0.00 398.19 44.00" xmlns="http://www.w3.org/2000/svg" xmlns:xlink="http://www.w3.org/1999/xlink">
<g id="graph0" class="graph" transform="scale(1 1) rotate(0) translate(4 40)">
<title>G</title>
<polygon fill="white" stroke="transparent" points="-4,4 -4,-40 394.19,-40 394.19,4 -4,4"/>
<!-- x -->
<g id="node1" class="node">
<title>x</title>
<ellipse fill="none" stroke="black" cx="27" cy="-18" rx="27" ry="18"/>
<text text-anchor="middle" x="27" y="-14.3" font-family="Times,serif" font-size="14.00">x</text>
</g>
<!-- x*ŵ, &#160;&#160;&#160;bias=True -->
<g id="node2" class="node">
<title>x*ŵ, &#160;&#160;&#160;bias=True</title>
<ellipse fill="none" stroke="black" cx="181.09" cy="-18" rx="74.19" ry="18"/>
<text text-anchor="middle" x="181.09" y="-14.3" font-family="Times,serif" font-size="14.00">x*ŵ, &#160;&#160;&#160;bias=True</text>
</g>
<!-- x&#45;&gt;x*ŵ, &#160;&#160;&#160;bias=True -->
<g id="edge1" class="edge">
<title>x&#45;&gt;x*ŵ, &#160;&#160;&#160;bias=True</title>
<path fill="none" stroke="black" d="M54.15,-18C66.2,-18 81.25,-18 96.7,-18"/>
<polygon fill="black" stroke="black" points="96.89,-21.5 106.89,-18 96.89,-14.5 96.89,-21.5"/>
<text text-anchor="middle" x="80.5" y="-21.8" font-family="Times,serif" font-size="14.00">*ŵ</text>
</g>
<!-- ŷ -->
<g id="node3" class="node">
<title>ŷ</title>
<ellipse fill="none" stroke="black" cx="363.19" cy="-18" rx="27" ry="18"/>
<text text-anchor="middle" x="363.19" y="-14.3" font-family="Times,serif" font-size="14.00">ŷ</text>
</g>
<!-- x*ŵ, &#160;&#160;&#160;bias=True&#45;&gt;ŷ -->
<g id="edge2" class="edge">
<title>x*ŵ, &#160;&#160;&#160;bias=True&#45;&gt;ŷ</title>
<path fill="none" stroke="black" d="M255.34,-18C279.72,-18 305.81,-18 326.1,-18"/>
<polygon fill="black" stroke="black" points="326.14,-21.5 336.14,-18 326.14,-14.5 326.14,-21.5"/>
<text text-anchor="middle" x="295.69" y="-21.8" font-family="Times,serif" font-size="14.00">sigmoid</text>
</g>
</g>
</svg>
