<?xml version="1.0" encoding="UTF-8" standalone="no"?>
<!DOCTYPE svg PUBLIC "-//W3C//DTD SVG 1.1//EN"
 "http://www.w3.org/Graphics/SVG/1.1/DTD/svg11.dtd">
<!-- Generated by graphviz version 2.43.0 (0)
 -->
<!-- Title: G Pages: 1 -->
<svg width="397pt" height="261pt"
 viewBox="0.00 0.00 396.99 261.00" xmlns="http://www.w3.org/2000/svg" xmlns:xlink="http://www.w3.org/1999/xlink">
<g id="graph0" class="graph" transform="scale(1 1) rotate(0) translate(4 257)">
<title>G</title>
<polygon fill="white" stroke="transparent" points="-4,4 -4,-257 392.99,-257 392.99,4 -4,4"/>
<g id="clust1" class="cluster">
<title>cluster_1</title>
<polygon fill="lightgrey" stroke="lightgrey" points="5,-8 5,-245 84.19,-245 84.19,-8 5,-8"/>
<text text-anchor="middle" x="44.6" y="-229.8" font-family="Times,serif" font-size="14.00">Input Layer</text>
</g>
<g id="clust2" class="cluster">
<title>cluster_2</title>
<polygon fill="lightgrey" stroke="lightgrey" points="104.19,-8 104.19,-245 223.99,-245 223.99,-8 104.19,-8"/>
<text text-anchor="middle" x="164.09" y="-229.8" font-family="Times,serif" font-size="14.00">Hidden Layer: relu</text>
</g>
<g id="clust3" class="cluster">
<title>cluster_3</title>
<polygon fill="lightgrey" stroke="lightgrey" points="243.99,-89 243.99,-164 388.99,-164 388.99,-89 243.99,-89"/>
<text text-anchor="middle" x="316.49" y="-148.8" font-family="Times,serif" font-size="14.00">Outplut Layer: sigmoid</text>
</g>
<!-- x1 -->
<g id="node1" class="node">
<title>x1</title>
<ellipse fill="none" stroke="black" cx="44.6" cy="-196" rx="27" ry="18"/>
<text text-anchor="middle" x="44.6" y="-192.3" font-family="Times,serif" font-size="14.00">x1</text>
</g>
<!-- node1 -->
<g id="node5" class="node">
<title>node1</title>
<ellipse fill="none" stroke="black" cx="163.59" cy="-196" rx="32.49" ry="18"/>
<text text-anchor="middle" x="163.59" y="-192.3" font-family="Times,serif" font-size="14.00">node1</text>
</g>
<!-- x1&#45;&gt;node1 -->
<g id="edge1" class="edge">
<title>x1&#45;&gt;node1</title>
<path fill="none" stroke="black" d="M71.85,-196C86.22,-196 104.37,-196 120.65,-196"/>
<polygon fill="black" stroke="black" points="121.02,-199.5 131.02,-196 121.02,-192.5 121.02,-199.5"/>
</g>
<!-- node2 -->
<g id="node6" class="node">
<title>node2</title>
<ellipse fill="none" stroke="black" cx="163.59" cy="-142" rx="32.49" ry="18"/>
<text text-anchor="middle" x="163.59" y="-138.3" font-family="Times,serif" font-size="14.00">node2</text>
</g>
<!-- x1&#45;&gt;node2 -->
<g id="edge5" class="edge">
<title>x1&#45;&gt;node2</title>
<path fill="none" stroke="black" d="M67.33,-185.97C84.59,-178 109.04,-166.72 128.85,-157.57"/>
<polygon fill="black" stroke="black" points="130.53,-160.65 138.15,-153.28 127.6,-154.3 130.53,-160.65"/>
</g>
<!-- ... -->
<g id="node7" class="node">
<title>...</title>
<ellipse fill="none" stroke="black" cx="163.59" cy="-88" rx="27" ry="18"/>
<text text-anchor="middle" x="163.59" y="-84.3" font-family="Times,serif" font-size="14.00">...</text>
</g>
<!-- x1&#45;&gt;... -->
<g id="edge9" class="edge">
<title>x1&#45;&gt;...</title>
<path fill="none" stroke="black" d="M61.38,-181.43C81.46,-162.89 116.32,-130.71 139.43,-109.39"/>
<polygon fill="black" stroke="black" points="142.09,-111.69 147.06,-102.33 137.34,-106.55 142.09,-111.69"/>
</g>
<!-- node32 -->
<g id="node8" class="node">
<title>node32</title>
<ellipse fill="none" stroke="black" cx="163.59" cy="-34" rx="36.29" ry="18"/>
<text text-anchor="middle" x="163.59" y="-30.3" font-family="Times,serif" font-size="14.00">node32</text>
</g>
<!-- x1&#45;&gt;node32 -->
<g id="edge13" class="edge">
<title>x1&#45;&gt;node32</title>
<path fill="none" stroke="black" d="M57.24,-179.87C77.62,-151.66 119.87,-93.15 144.22,-59.44"/>
<polygon fill="black" stroke="black" points="147.28,-61.19 150.29,-51.03 141.6,-57.09 147.28,-61.19"/>
</g>
<!-- x2 -->
<g id="node2" class="node">
<title>x2</title>
<ellipse fill="none" stroke="black" cx="44.6" cy="-142" rx="27" ry="18"/>
<text text-anchor="middle" x="44.6" y="-138.3" font-family="Times,serif" font-size="14.00">x2</text>
</g>
<!-- x2&#45;&gt;node1 -->
<g id="edge2" class="edge">
<title>x2&#45;&gt;node1</title>
<path fill="none" stroke="black" d="M67.33,-152.03C84.59,-160 109.04,-171.28 128.85,-180.43"/>
<polygon fill="black" stroke="black" points="127.6,-183.7 138.15,-184.72 130.53,-177.35 127.6,-183.7"/>
</g>
<!-- x2&#45;&gt;node2 -->
<g id="edge6" class="edge">
<title>x2&#45;&gt;node2</title>
<path fill="none" stroke="black" d="M71.85,-142C86.22,-142 104.37,-142 120.65,-142"/>
<polygon fill="black" stroke="black" points="121.02,-145.5 131.02,-142 121.02,-138.5 121.02,-145.5"/>
</g>
<!-- x2&#45;&gt;... -->
<g id="edge10" class="edge">
<title>x2&#45;&gt;...</title>
<path fill="none" stroke="black" d="M67.33,-131.97C85.47,-123.6 111.54,-111.56 131.83,-102.2"/>
<polygon fill="black" stroke="black" points="133.36,-105.35 140.98,-97.98 130.43,-98.99 133.36,-105.35"/>
</g>
<!-- x2&#45;&gt;node32 -->
<g id="edge14" class="edge">
<title>x2&#45;&gt;node32</title>
<path fill="none" stroke="black" d="M61.38,-127.43C81.1,-109.23 115.07,-77.86 138.17,-56.54"/>
<polygon fill="black" stroke="black" points="140.57,-59.09 145.55,-49.73 135.83,-53.94 140.57,-59.09"/>
</g>
<!-- .. -->
<g id="node3" class="node">
<title>..</title>
<ellipse fill="none" stroke="black" cx="44.6" cy="-88" rx="27" ry="18"/>
<text text-anchor="middle" x="44.6" y="-84.3" font-family="Times,serif" font-size="14.00">..</text>
</g>
<!-- ..&#45;&gt;node1 -->
<g id="edge3" class="edge">
<title>..&#45;&gt;node1</title>
<path fill="none" stroke="black" d="M61.38,-102.57C81.21,-120.88 115.46,-152.49 138.56,-173.82"/>
<polygon fill="black" stroke="black" points="136.21,-176.41 145.93,-180.62 140.96,-171.27 136.21,-176.41"/>
</g>
<!-- ..&#45;&gt;node2 -->
<g id="edge7" class="edge">
<title>..&#45;&gt;node2</title>
<path fill="none" stroke="black" d="M67.33,-98.03C84.59,-106 109.04,-117.28 128.85,-126.43"/>
<polygon fill="black" stroke="black" points="127.6,-129.7 138.15,-130.72 130.53,-123.35 127.6,-129.7"/>
</g>
<!-- ..&#45;&gt;... -->
<g id="edge11" class="edge">
<title>..&#45;&gt;...</title>
<path fill="none" stroke="black" d="M71.85,-88C87.81,-88 108.42,-88 125.96,-88"/>
<polygon fill="black" stroke="black" points="126.42,-91.5 136.42,-88 126.42,-84.5 126.42,-91.5"/>
</g>
<!-- ..&#45;&gt;node32 -->
<g id="edge15" class="edge">
<title>..&#45;&gt;node32</title>
<path fill="none" stroke="black" d="M67.33,-77.97C84.14,-70.21 107.76,-59.31 127.27,-50.3"/>
<polygon fill="black" stroke="black" points="128.86,-53.42 136.48,-46.05 125.93,-47.07 128.86,-53.42"/>
</g>
<!-- x784 -->
<g id="node4" class="node">
<title>x784</title>
<ellipse fill="none" stroke="black" cx="44.6" cy="-34" rx="28.7" ry="18"/>
<text text-anchor="middle" x="44.6" y="-30.3" font-family="Times,serif" font-size="14.00">x784</text>
</g>
<!-- x784&#45;&gt;node1 -->
<g id="edge4" class="edge">
<title>x784&#45;&gt;node1</title>
<path fill="none" stroke="black" d="M57.46,-50.42C77.94,-78.78 120.05,-137.09 144.3,-170.67"/>
<polygon fill="black" stroke="black" points="141.66,-172.99 150.35,-179.05 147.33,-168.89 141.66,-172.99"/>
</g>
<!-- x784&#45;&gt;node2 -->
<g id="edge8" class="edge">
<title>x784&#45;&gt;node2</title>
<path fill="none" stroke="black" d="M61.87,-49.02C81.75,-67.37 115.57,-98.59 138.48,-119.74"/>
<polygon fill="black" stroke="black" points="136.36,-122.55 146.09,-126.76 141.11,-117.41 136.36,-122.55"/>
</g>
<!-- x784&#45;&gt;... -->
<g id="edge12" class="edge">
<title>x784&#45;&gt;...</title>
<path fill="none" stroke="black" d="M68.16,-44.41C86.19,-52.73 111.66,-64.49 131.6,-73.7"/>
<polygon fill="black" stroke="black" points="130.35,-76.97 140.89,-77.99 133.28,-70.62 130.35,-76.97"/>
</g>
<!-- x784&#45;&gt;node32 -->
<g id="edge16" class="edge">
<title>x784&#45;&gt;node32</title>
<path fill="none" stroke="black" d="M73.32,-34C86.26,-34 102.01,-34 116.66,-34"/>
<polygon fill="black" stroke="black" points="117.08,-37.5 127.08,-34 117.08,-30.5 117.08,-37.5"/>
</g>
<!-- yhat -->
<g id="node9" class="node">
<title>yhat</title>
<ellipse fill="none" stroke="black" cx="315.99" cy="-115" rx="27" ry="18"/>
<text text-anchor="middle" x="315.99" y="-111.3" font-family="Times,serif" font-size="14.00">yhat</text>
</g>
<!-- node1&#45;&gt;yhat -->
<g id="edge17" class="edge">
<title>node1&#45;&gt;yhat</title>
<path fill="none" stroke="black" d="M187.43,-183.7C213.57,-169.62 256.45,-146.53 285.19,-131.05"/>
<polygon fill="black" stroke="black" points="287.21,-133.94 294.35,-126.11 283.89,-127.77 287.21,-133.94"/>
</g>
<!-- node2&#45;&gt;yhat -->
<g id="edge18" class="edge">
<title>node2&#45;&gt;yhat</title>
<path fill="none" stroke="black" d="M194.67,-136.6C219.08,-132.22 253.55,-126.03 279.35,-121.4"/>
<polygon fill="black" stroke="black" points="280.24,-124.79 289.47,-119.58 279.01,-117.9 280.24,-124.79"/>
</g>
<!-- ...&#45;&gt;yhat -->
<g id="edge19" class="edge">
<title>...&#45;&gt;yhat</title>
<path fill="none" stroke="black" d="M189.76,-92.52C214.38,-96.94 252.09,-103.71 279.7,-108.66"/>
<polygon fill="black" stroke="black" points="279.27,-112.14 289.73,-110.47 280.51,-105.25 279.27,-112.14"/>
</g>
<!-- node32&#45;&gt;yhat -->
<g id="edge20" class="edge">
<title>node32&#45;&gt;yhat</title>
<path fill="none" stroke="black" d="M188.76,-47.01C215.02,-61.16 257,-83.77 285.26,-98.99"/>
<polygon fill="black" stroke="black" points="283.81,-102.18 294.27,-103.84 287.13,-96.02 283.81,-102.18"/>
</g>
</g>
</svg>
