<?xml version="1.0" encoding="UTF-8" standalone="no"?>
<!DOCTYPE svg PUBLIC "-//W3C//DTD SVG 1.1//EN"
 "http://www.w3.org/Graphics/SVG/1.1/DTD/svg11.dtd">
<!-- Generated by graphviz version 2.43.0 (0)
 -->
<!-- Title: G Pages: 1 -->
<svg width="579pt" height="153pt"
 viewBox="0.00 0.00 579.38 153.00" xmlns="http://www.w3.org/2000/svg" xmlns:xlink="http://www.w3.org/1999/xlink">
<g id="graph0" class="graph" transform="scale(1 1) rotate(0) translate(4 149)">
<title>G</title>
<polygon fill="white" stroke="transparent" points="-4,4 -4,-149 575.38,-149 575.38,4 -4,4"/>
<g id="clust1" class="cluster">
<title>cluster_1</title>
<polygon fill="lightgrey" stroke="lightgrey" points="8,-20 8,-95 78,-95 78,-20 8,-20"/>
<text text-anchor="middle" x="43" y="-79.8" font-family="Times,serif" font-size="14.00">Layer 0</text>
</g>
<g id="clust2" class="cluster">
<title>cluster_2</title>
<polygon fill="lightgrey" stroke="lightgrey" points="99,-8 99,-137 310.79,-137 310.79,-8 99,-8"/>
<text text-anchor="middle" x="204.89" y="-121.8" font-family="Times,serif" font-size="14.00">Layer 1</text>
</g>
<g id="clust3" class="cluster">
<title>cluster_3</title>
<polygon fill="lightgrey" stroke="lightgrey" points="331.79,-20 331.79,-95 563.38,-95 563.38,-20 331.79,-20"/>
<text text-anchor="middle" x="447.58" y="-79.8" font-family="Times,serif" font-size="14.00">Layer 2</text>
</g>
<!-- X -->
<g id="node1" class="node">
<title>X</title>
<ellipse fill="none" stroke="black" cx="43" cy="-46" rx="27" ry="18"/>
<text text-anchor="middle" x="43" y="-42.3" font-family="Times,serif" font-size="14.00">X</text>
</g>
<!-- u1[:,0] -->
<g id="node2" class="node">
<title>u1[:,0]</title>
<ellipse fill="none" stroke="black" cx="141.45" cy="-88" rx="34.39" ry="18"/>
<text text-anchor="middle" x="141.45" y="-84.3" font-family="Times,serif" font-size="14.00">u1[:,0]</text>
</g>
<!-- X&#45;&gt;u1[:,0] -->
<g id="edge1" class="edge">
<title>X&#45;&gt;u1[:,0]</title>
<path fill="none" stroke="black" d="M66.37,-55.74C77.81,-60.72 92.01,-66.91 104.9,-72.52"/>
<polygon fill="black" stroke="black" points="103.88,-75.89 114.44,-76.68 106.67,-69.47 103.88,-75.89"/>
</g>
<!-- u1[:,1] -->
<g id="node3" class="node">
<title>u1[:,1]</title>
<ellipse fill="none" stroke="black" cx="141.45" cy="-34" rx="34.39" ry="18"/>
<text text-anchor="middle" x="141.45" y="-30.3" font-family="Times,serif" font-size="14.00">u1[:,1]</text>
</g>
<!-- X&#45;&gt;u1[:,1] -->
<g id="edge2" class="edge">
<title>X&#45;&gt;u1[:,1]</title>
<path fill="none" stroke="black" d="M69.59,-42.82C78.2,-41.74 88.05,-40.52 97.61,-39.33"/>
<polygon fill="black" stroke="black" points="98.31,-42.77 107.81,-38.06 97.45,-35.82 98.31,-42.77"/>
</g>
<!-- v1[:,0] -->
<g id="node4" class="node">
<title>v1[:,0]</title>
<ellipse fill="none" stroke="black" cx="268.34" cy="-88" rx="34.39" ry="18"/>
<text text-anchor="middle" x="268.34" y="-84.3" font-family="Times,serif" font-size="14.00">v1[:,0]</text>
</g>
<!-- u1[:,0]&#45;&gt;v1[:,0] -->
<g id="edge3" class="edge">
<title>u1[:,0]&#45;&gt;v1[:,0]</title>
<path fill="none" stroke="black" d="M175.92,-88C190.62,-88 208.07,-88 223.76,-88"/>
<polygon fill="black" stroke="black" points="223.78,-91.5 233.78,-88 223.78,-84.5 223.78,-91.5"/>
<text text-anchor="middle" x="204.89" y="-91.8" font-family="Times,serif" font-size="14.00">relu</text>
</g>
<!-- v1[:,1] -->
<g id="node5" class="node">
<title>v1[:,1]</title>
<ellipse fill="none" stroke="black" cx="268.34" cy="-34" rx="34.39" ry="18"/>
<text text-anchor="middle" x="268.34" y="-30.3" font-family="Times,serif" font-size="14.00">v1[:,1]</text>
</g>
<!-- u1[:,1]&#45;&gt;v1[:,1] -->
<g id="edge4" class="edge">
<title>u1[:,1]&#45;&gt;v1[:,1]</title>
<path fill="none" stroke="black" d="M175.92,-34C190.62,-34 208.07,-34 223.76,-34"/>
<polygon fill="black" stroke="black" points="223.78,-37.5 233.78,-34 223.78,-30.5 223.78,-37.5"/>
<text text-anchor="middle" x="204.89" y="-37.8" font-family="Times,serif" font-size="14.00">relu</text>
</g>
<!-- u2 -->
<g id="node6" class="node">
<title>u2</title>
<ellipse fill="none" stroke="black" cx="366.79" cy="-46" rx="27" ry="18"/>
<text text-anchor="middle" x="366.79" y="-42.3" font-family="Times,serif" font-size="14.00">u2</text>
</g>
<!-- v1[:,0]&#45;&gt;u2 -->
<g id="edge5" class="edge">
<title>v1[:,0]&#45;&gt;u2</title>
<path fill="none" stroke="black" d="M295.44,-76.63C307.44,-71.41 321.78,-65.16 334.37,-59.68"/>
<polygon fill="black" stroke="black" points="335.82,-62.87 343.59,-55.67 333.03,-56.45 335.82,-62.87"/>
</g>
<!-- v1[:,1]&#45;&gt;u2 -->
<g id="edge6" class="edge">
<title>v1[:,1]&#45;&gt;u2</title>
<path fill="none" stroke="black" d="M301.99,-38.06C311.05,-39.19 320.92,-40.42 330.13,-41.56"/>
<polygon fill="black" stroke="black" points="329.82,-45.05 340.18,-42.81 330.69,-38.11 329.82,-45.05"/>
</g>
<!-- v2=yhat -->
<g id="node7" class="node">
<title>v2=yhat</title>
<ellipse fill="none" stroke="black" cx="515.08" cy="-46" rx="40.09" ry="18"/>
<text text-anchor="middle" x="515.08" y="-42.3" font-family="Times,serif" font-size="14.00">v2=yhat</text>
</g>
<!-- u2&#45;&gt;v2=yhat -->
<g id="edge7" class="edge">
<title>u2&#45;&gt;v2=yhat</title>
<path fill="none" stroke="black" d="M393.94,-46C413.49,-46 440.79,-46 464.44,-46"/>
<polygon fill="black" stroke="black" points="464.66,-49.5 474.66,-46 464.66,-42.5 464.66,-49.5"/>
<text text-anchor="middle" x="434.29" y="-49.8" font-family="Times,serif" font-size="14.00">sigmoid</text>
</g>
</g>
</svg>
