<?xml version="1.0" encoding="UTF-8" standalone="no"?>
<!DOCTYPE svg PUBLIC "-//W3C//DTD SVG 1.1//EN"
 "http://www.w3.org/Graphics/SVG/1.1/DTD/svg11.dtd">
<!-- Generated by graphviz version 2.43.0 (0)
 -->
<!-- Title: G Pages: 1 -->
<svg width="327pt" height="153pt"
 viewBox="0.00 0.00 327.49 153.00" xmlns="http://www.w3.org/2000/svg" xmlns:xlink="http://www.w3.org/1999/xlink">
<g id="graph0" class="graph" transform="scale(1 1) rotate(0) translate(4 149)">
<title>G</title>
<polygon fill="white" stroke="transparent" points="-4,4 -4,-149 323.49,-149 323.49,4 -4,4"/>
<g id="clust1" class="cluster">
<title>cluster_1</title>
<polygon fill="lightgrey" stroke="lightgrey" points="8,-35 8,-110 78,-110 78,-35 8,-35"/>
<text text-anchor="middle" x="43" y="-94.8" font-family="Times,serif" font-size="14.00">Layer 0</text>
</g>
<g id="clust2" class="cluster">
<title>cluster_2</title>
<polygon fill="lightgrey" stroke="lightgrey" points="98,-8 98,-137 193.29,-137 193.29,-8 98,-8"/>
<text text-anchor="middle" x="145.65" y="-121.8" font-family="Times,serif" font-size="14.00">Layer 1:relu</text>
</g>
<g id="clust3" class="cluster">
<title>cluster_3</title>
<polygon fill="lightgrey" stroke="lightgrey" points="213.29,-35 213.29,-110 319.49,-110 319.49,-35 213.29,-35"/>
<text text-anchor="middle" x="266.39" y="-94.8" font-family="Times,serif" font-size="14.00">Layer 2:sigmoid</text>
</g>
<!-- X -->
<g id="node1" class="node">
<title>X</title>
<ellipse fill="none" stroke="black" cx="43" cy="-61" rx="27" ry="18"/>
<text text-anchor="middle" x="43" y="-57.3" font-family="Times,serif" font-size="14.00">X</text>
</g>
<!-- feature1 -->
<g id="node2" class="node">
<title>feature1</title>
<ellipse fill="none" stroke="black" cx="145.65" cy="-88" rx="39.79" ry="18"/>
<text text-anchor="middle" x="145.65" y="-84.3" font-family="Times,serif" font-size="14.00">feature1</text>
</g>
<!-- X&#45;&gt;feature1 -->
<g id="edge1" class="edge">
<title>X&#45;&gt;feature1</title>
<path fill="none" stroke="black" d="M68.36,-67.54C78.26,-70.19 90.01,-73.34 101.28,-76.37"/>
<polygon fill="black" stroke="black" points="100.44,-79.76 111,-78.97 102.25,-73 100.44,-79.76"/>
</g>
<!-- feature2 -->
<g id="node3" class="node">
<title>feature2</title>
<ellipse fill="none" stroke="black" cx="145.65" cy="-34" rx="39.79" ry="18"/>
<text text-anchor="middle" x="145.65" y="-30.3" font-family="Times,serif" font-size="14.00">feature2</text>
</g>
<!-- X&#45;&gt;feature2 -->
<g id="edge2" class="edge">
<title>X&#45;&gt;feature2</title>
<path fill="none" stroke="black" d="M68.36,-54.46C78.26,-51.81 90.01,-48.66 101.28,-45.63"/>
<polygon fill="black" stroke="black" points="102.25,-49 111,-43.03 100.44,-42.24 102.25,-49"/>
</g>
<!-- yhat  -->
<g id="node4" class="node">
<title>yhat </title>
<ellipse fill="none" stroke="black" cx="265.89" cy="-61" rx="28.7" ry="18"/>
<text text-anchor="middle" x="265.89" y="-57.3" font-family="Times,serif" font-size="14.00">yhat </text>
</g>
<!-- feature1&#45;&gt;yhat  -->
<g id="edge3" class="edge">
<title>feature1&#45;&gt;yhat </title>
<path fill="none" stroke="black" d="M181.48,-80.05C196.32,-76.66 213.62,-72.71 228.61,-69.28"/>
<polygon fill="black" stroke="black" points="229.59,-72.65 238.56,-67.01 228.03,-65.83 229.59,-72.65"/>
</g>
<!-- feature2&#45;&gt;yhat  -->
<g id="edge4" class="edge">
<title>feature2&#45;&gt;yhat </title>
<path fill="none" stroke="black" d="M181.48,-41.95C196.32,-45.34 213.62,-49.29 228.61,-52.72"/>
<polygon fill="black" stroke="black" points="228.03,-56.17 238.56,-54.99 229.59,-49.35 228.03,-56.17"/>
</g>
</g>
</svg>
