<?xml version="1.0" encoding="UTF-8" standalone="no"?>
<!DOCTYPE svg PUBLIC "-//W3C//DTD SVG 1.1//EN"
 "http://www.w3.org/Graphics/SVG/1.1/DTD/svg11.dtd">
<!-- Generated by graphviz version 2.40.1 (20161225.0304)
 -->
<!-- Title: G Pages: 1 -->
<svg width="460pt" height="261pt"
 viewBox="0.00 0.00 460.28 261.00" xmlns="http://www.w3.org/2000/svg" xmlns:xlink="http://www.w3.org/1999/xlink">
<g id="graph0" class="graph" transform="scale(1 1) rotate(0) translate(4 257)">
<title>G</title>
<polygon fill="#ffffff" stroke="transparent" points="-4,4 -4,-257 456.2803,-257 456.2803,4 -4,4"/>
<g id="clust1" class="cluster">
<title>cluster_1</title>
<polygon fill="#d3d3d3" stroke="#d3d3d3" points="8,-8 8,-245 85.0946,-245 85.0946,-8 8,-8"/>
<text text-anchor="middle" x="46.5473" y="-229.8" font-family="Times,serif" font-size="14.00" fill="#000000">Layer 0</text>
</g>
<g id="clust2" class="cluster">
<title>cluster_2</title>
<polygon fill="#d3d3d3" stroke="#d3d3d3" points="105.0946,-8 105.0946,-245 199.0877,-245 199.0877,-8 105.0946,-8"/>
<text text-anchor="middle" x="152.0911" y="-229.8" font-family="Times,serif" font-size="14.00" fill="#000000">Layer 1: relu</text>
</g>
<g id="clust3" class="cluster">
<title>cluster_3</title>
<polygon fill="#d3d3d3" stroke="#d3d3d3" points="219.0877,-8 219.0877,-245 318.2803,-245 318.2803,-8 219.0877,-8"/>
<text text-anchor="middle" x="268.684" y="-229.8" font-family="Times,serif" font-size="14.00" fill="#000000">Layer 2: relu</text>
</g>
<g id="clust4" class="cluster">
<title>cluster_4</title>
<polygon fill="#d3d3d3" stroke="#d3d3d3" points="338.2803,-35 338.2803,-218 452.2803,-218 452.2803,-35 338.2803,-35"/>
<text text-anchor="middle" x="395.2803" y="-202.8" font-family="Times,serif" font-size="14.00" fill="#000000">Layer 3: softmax</text>
</g>
<!-- x1 -->
<g id="node1" class="node">
<title>x1</title>
<ellipse fill="none" stroke="#000000" cx="46.5473" cy="-196" rx="27" ry="18"/>
<text text-anchor="middle" x="46.5473" y="-192.3" font-family="Times,serif" font-size="14.00" fill="#000000">x1</text>
</g>
<!-- node1 -->
<g id="node5" class="node">
<title>node1</title>
<ellipse fill="none" stroke="#000000" cx="152.0911" cy="-196" rx="34.394" ry="18"/>
<text text-anchor="middle" x="152.0911" y="-192.3" font-family="Times,serif" font-size="14.00" fill="#000000">node1</text>
</g>
<!-- x1&#45;&gt;node1 -->
<g id="edge1" class="edge">
<title>x1&#45;&gt;node1</title>
<path fill="none" stroke="#000000" d="M73.7274,-196C83.9217,-196 95.7972,-196 107.1744,-196"/>
<polygon fill="#000000" stroke="#000000" points="107.4202,-199.5001 117.4202,-196 107.4202,-192.5001 107.4202,-199.5001"/>
</g>
<!-- node2 -->
<g id="node6" class="node">
<title>node2</title>
<ellipse fill="none" stroke="#000000" cx="152.0911" cy="-142" rx="34.394" ry="18"/>
<text text-anchor="middle" x="152.0911" y="-138.3" font-family="Times,serif" font-size="14.00" fill="#000000">node2</text>
</g>
<!-- x1&#45;&gt;node2 -->
<g id="edge5" class="edge">
<title>x1&#45;&gt;node2</title>
<path fill="none" stroke="#000000" d="M68.1603,-184.942C82.4781,-177.6165 101.5634,-167.8518 117.9166,-159.4849"/>
<polygon fill="#000000" stroke="#000000" points="119.8644,-162.4199 127.1727,-154.7492 116.676,-156.1882 119.8644,-162.4199"/>
</g>
<!-- ... -->
<g id="node7" class="node">
<title>...</title>
<ellipse fill="none" stroke="#000000" cx="152.0911" cy="-88" rx="27" ry="18"/>
<text text-anchor="middle" x="152.0911" y="-84.3" font-family="Times,serif" font-size="14.00" fill="#000000">...</text>
</g>
<!-- x1&#45;&gt;... -->
<g id="edge9" class="edge">
<title>x1&#45;&gt;...</title>
<path fill="none" stroke="#000000" d="M61.6691,-180.5262C79.6401,-162.1371 109.7657,-131.3104 130.2622,-110.3369"/>
<polygon fill="#000000" stroke="#000000" points="132.8515,-112.6951 137.3376,-103.0969 127.8451,-107.8026 132.8515,-112.6951"/>
</g>
<!-- node20 -->
<g id="node8" class="node">
<title>node20</title>
<ellipse fill="none" stroke="#000000" cx="152.0911" cy="-34" rx="38.9931" ry="18"/>
<text text-anchor="middle" x="152.0911" y="-30.3" font-family="Times,serif" font-size="14.00" fill="#000000">node20</text>
</g>
<!-- x1&#45;&gt;node20 -->
<g id="edge13" class="edge">
<title>x1&#45;&gt;node20</title>
<path fill="none" stroke="#000000" d="M57.4448,-179.2733C75.8352,-151.0458 113.1612,-93.7539 135.0423,-60.1684"/>
<polygon fill="#000000" stroke="#000000" points="138.2495,-61.6573 140.7757,-51.3681 132.3844,-57.8362 138.2495,-61.6573"/>
</g>
<!-- x2 -->
<g id="node2" class="node">
<title>x2</title>
<ellipse fill="none" stroke="#000000" cx="46.5473" cy="-142" rx="27" ry="18"/>
<text text-anchor="middle" x="46.5473" y="-138.3" font-family="Times,serif" font-size="14.00" fill="#000000">x2</text>
</g>
<!-- x2&#45;&gt;node1 -->
<g id="edge2" class="edge">
<title>x2&#45;&gt;node1</title>
<path fill="none" stroke="#000000" d="M68.1603,-153.058C82.4781,-160.3835 101.5634,-170.1482 117.9166,-178.5151"/>
<polygon fill="#000000" stroke="#000000" points="116.676,-181.8118 127.1727,-183.2508 119.8644,-175.5801 116.676,-181.8118"/>
</g>
<!-- x2&#45;&gt;node2 -->
<g id="edge6" class="edge">
<title>x2&#45;&gt;node2</title>
<path fill="none" stroke="#000000" d="M73.7274,-142C83.9217,-142 95.7972,-142 107.1744,-142"/>
<polygon fill="#000000" stroke="#000000" points="107.4202,-145.5001 117.4202,-142 107.4202,-138.5001 107.4202,-145.5001"/>
</g>
<!-- x2&#45;&gt;... -->
<g id="edge10" class="edge">
<title>x2&#45;&gt;...</title>
<path fill="none" stroke="#000000" d="M68.1603,-130.942C83.5278,-123.0794 104.3876,-112.4068 121.4665,-103.6686"/>
<polygon fill="#000000" stroke="#000000" points="123.1987,-106.714 130.507,-99.0432 120.0103,-100.4822 123.1987,-106.714"/>
</g>
<!-- x2&#45;&gt;node20 -->
<g id="edge14" class="edge">
<title>x2&#45;&gt;node20</title>
<path fill="none" stroke="#000000" d="M61.6691,-126.5262C79.2339,-108.5527 108.4103,-78.6974 128.8581,-57.7737"/>
<polygon fill="#000000" stroke="#000000" points="131.4729,-60.1058 135.959,-50.5076 126.4665,-55.2133 131.4729,-60.1058"/>
</g>
<!-- .. -->
<g id="node3" class="node">
<title>..</title>
<ellipse fill="none" stroke="#000000" cx="46.5473" cy="-88" rx="27" ry="18"/>
<text text-anchor="middle" x="46.5473" y="-84.3" font-family="Times,serif" font-size="14.00" fill="#000000">..</text>
</g>
<!-- ..&#45;&gt;node1 -->
<g id="edge3" class="edge">
<title>..&#45;&gt;node1</title>
<path fill="none" stroke="#000000" d="M61.6691,-103.4738C79.3355,-121.5512 108.7479,-151.6482 129.2118,-172.5883"/>
<polygon fill="#000000" stroke="#000000" points="126.8155,-175.1439 136.308,-179.8496 131.8218,-170.2513 126.8155,-175.1439"/>
</g>
<!-- ..&#45;&gt;node2 -->
<g id="edge7" class="edge">
<title>..&#45;&gt;node2</title>
<path fill="none" stroke="#000000" d="M68.1603,-99.058C82.4781,-106.3835 101.5634,-116.1482 117.9166,-124.5151"/>
<polygon fill="#000000" stroke="#000000" points="116.676,-127.8118 127.1727,-129.2508 119.8644,-121.5801 116.676,-127.8118"/>
</g>
<!-- ..&#45;&gt;... -->
<g id="edge11" class="edge">
<title>..&#45;&gt;...</title>
<path fill="none" stroke="#000000" d="M73.7274,-88C86.2847,-88 101.3928,-88 114.9783,-88"/>
<polygon fill="#000000" stroke="#000000" points="115.0031,-91.5001 125.0031,-88 115.003,-84.5001 115.0031,-91.5001"/>
</g>
<!-- ..&#45;&gt;node20 -->
<g id="edge15" class="edge">
<title>..&#45;&gt;node20</title>
<path fill="none" stroke="#000000" d="M68.1603,-76.942C82.0748,-69.8229 100.4919,-60.4 116.5283,-52.1952"/>
<polygon fill="#000000" stroke="#000000" points="118.3348,-55.2025 125.6431,-47.5318 115.1464,-48.9708 118.3348,-55.2025"/>
</g>
<!-- x784 -->
<g id="node4" class="node">
<title>x784</title>
<ellipse fill="none" stroke="#000000" cx="46.5473" cy="-34" rx="30.5947" ry="18"/>
<text text-anchor="middle" x="46.5473" y="-30.3" font-family="Times,serif" font-size="14.00" fill="#000000">x784</text>
</g>
<!-- x784&#45;&gt;node1 -->
<g id="edge4" class="edge">
<title>x784&#45;&gt;node1</title>
<path fill="none" stroke="#000000" d="M57.6428,-51.0306C76.123,-79.396 113.3242,-136.4964 135.1169,-169.9461"/>
<polygon fill="#000000" stroke="#000000" points="132.4352,-172.2418 140.8266,-178.71 138.3003,-168.4207 132.4352,-172.2418"/>
</g>
<!-- x784&#45;&gt;node2 -->
<g id="edge8" class="edge">
<title>x784&#45;&gt;node2</title>
<path fill="none" stroke="#000000" d="M62.1206,-49.9358C79.7907,-68.0171 108.7821,-97.6831 129.0659,-118.439"/>
<polygon fill="#000000" stroke="#000000" points="126.6154,-120.9391 136.1079,-125.6448 131.6217,-116.0466 126.6154,-120.9391"/>
</g>
<!-- x784&#45;&gt;... -->
<g id="edge12" class="edge">
<title>x784&#45;&gt;...</title>
<path fill="none" stroke="#000000" d="M69.7093,-45.8505C84.8255,-53.5845 104.734,-63.7704 121.1932,-72.1915"/>
<polygon fill="#000000" stroke="#000000" points="119.9265,-75.4749 130.4232,-76.9139 123.115,-69.2432 119.9265,-75.4749"/>
</g>
<!-- x784&#45;&gt;node20 -->
<g id="edge16" class="edge">
<title>x784&#45;&gt;node20</title>
<path fill="none" stroke="#000000" d="M77.3587,-34C85.318,-34 94.0885,-34 102.7361,-34"/>
<polygon fill="#000000" stroke="#000000" points="102.7753,-37.5001 112.7753,-34 102.7752,-30.5001 102.7753,-37.5001"/>
</g>
<!-- node1  -->
<g id="node9" class="node">
<title>node1 </title>
<ellipse fill="none" stroke="#000000" cx="268.684" cy="-196" rx="36.2938" ry="18"/>
<text text-anchor="middle" x="268.684" y="-192.3" font-family="Times,serif" font-size="14.00" fill="#000000">node1 </text>
</g>
<!-- node1&#45;&gt;node1  -->
<g id="edge17" class="edge">
<title>node1&#45;&gt;node1 </title>
<path fill="none" stroke="#000000" d="M186.7571,-196C197.7637,-196 210.123,-196 221.8398,-196"/>
<polygon fill="#000000" stroke="#000000" points="221.9208,-199.5001 231.9208,-196 221.9208,-192.5001 221.9208,-199.5001"/>
</g>
<!-- node2  -->
<g id="node10" class="node">
<title>node2 </title>
<ellipse fill="none" stroke="#000000" cx="268.684" cy="-142" rx="36.2938" ry="18"/>
<text text-anchor="middle" x="268.684" y="-138.3" font-family="Times,serif" font-size="14.00" fill="#000000">node2 </text>
</g>
<!-- node1&#45;&gt;node2  -->
<g id="edge21" class="edge">
<title>node1&#45;&gt;node2 </title>
<path fill="none" stroke="#000000" d="M177.9669,-184.0156C194.0429,-176.57 214.9419,-166.8906 232.6281,-158.6993"/>
<polygon fill="#000000" stroke="#000000" points="234.4691,-161.7038 242.0722,-154.3252 231.5273,-155.352 234.4691,-161.7038"/>
</g>
<!-- ...  -->
<g id="node11" class="node">
<title>... </title>
<ellipse fill="none" stroke="#000000" cx="268.684" cy="-88" rx="27" ry="18"/>
<text text-anchor="middle" x="268.684" y="-84.3" font-family="Times,serif" font-size="14.00" fill="#000000">... </text>
</g>
<!-- node1&#45;&gt;...  -->
<g id="edge25" class="edge">
<title>node1&#45;&gt;... </title>
<path fill="none" stroke="#000000" d="M169.2948,-180.0642C189.467,-161.3787 222.9953,-130.3215 245.4615,-109.511"/>
<polygon fill="#000000" stroke="#000000" points="247.9489,-111.9778 252.9067,-102.6145 243.192,-106.8424 247.9489,-111.9778"/>
</g>
<!-- node30  -->
<g id="node12" class="node">
<title>node30 </title>
<ellipse fill="none" stroke="#000000" cx="268.684" cy="-34" rx="41.6928" ry="18"/>
<text text-anchor="middle" x="268.684" y="-30.3" font-family="Times,serif" font-size="14.00" fill="#000000">node30 </text>
</g>
<!-- node1&#45;&gt;node30  -->
<g id="edge29" class="edge">
<title>node1&#45;&gt;node30 </title>
<path fill="none" stroke="#000000" d="M164.3482,-178.9694C184.8503,-150.4828 226.2103,-93.015 250.2405,-59.6263"/>
<polygon fill="#000000" stroke="#000000" points="253.2394,-61.4511 256.2402,-51.29 247.5579,-57.362 253.2394,-61.4511"/>
</g>
<!-- node2&#45;&gt;node1  -->
<g id="edge18" class="edge">
<title>node2&#45;&gt;node1 </title>
<path fill="none" stroke="#000000" d="M177.9669,-153.9844C194.0429,-161.43 214.9419,-171.1094 232.6281,-179.3007"/>
<polygon fill="#000000" stroke="#000000" points="231.5273,-182.648 242.0722,-183.6748 234.4691,-176.2962 231.5273,-182.648"/>
</g>
<!-- node2&#45;&gt;node2  -->
<g id="edge22" class="edge">
<title>node2&#45;&gt;node2 </title>
<path fill="none" stroke="#000000" d="M186.7571,-142C197.7637,-142 210.123,-142 221.8398,-142"/>
<polygon fill="#000000" stroke="#000000" points="221.9208,-145.5001 231.9208,-142 221.9208,-138.5001 221.9208,-145.5001"/>
</g>
<!-- node2&#45;&gt;...  -->
<g id="edge26" class="edge">
<title>node2&#45;&gt;... </title>
<path fill="none" stroke="#000000" d="M177.9669,-130.0156C195.4486,-121.919 218.6337,-111.1808 237.1886,-102.5871"/>
<polygon fill="#000000" stroke="#000000" points="238.8117,-105.6926 246.4148,-98.314 235.8698,-99.3407 238.8117,-105.6926"/>
</g>
<!-- node2&#45;&gt;node30  -->
<g id="edge30" class="edge">
<title>node2&#45;&gt;node30 </title>
<path fill="none" stroke="#000000" d="M169.2948,-126.0642C188.9003,-107.9036 221.1222,-78.0565 243.5426,-57.2884"/>
<polygon fill="#000000" stroke="#000000" points="246.0697,-59.7185 251.0275,-50.3552 241.3128,-54.5831 246.0697,-59.7185"/>
</g>
<!-- ...&#45;&gt;node1  -->
<g id="edge19" class="edge">
<title>...&#45;&gt;node1 </title>
<path fill="none" stroke="#000000" d="M168.3029,-103.0169C187.8931,-121.1634 221.0598,-151.8858 243.8738,-173.0184"/>
<polygon fill="#000000" stroke="#000000" points="241.7577,-175.8291 251.4725,-180.057 246.5146,-170.6937 241.7577,-175.8291"/>
</g>
<!-- ...&#45;&gt;node2  -->
<g id="edge23" class="edge">
<title>...&#45;&gt;node2 </title>
<path fill="none" stroke="#000000" d="M174.2958,-98.2841C190.8001,-105.9281 213.6674,-116.5191 232.7603,-125.3619"/>
<polygon fill="#000000" stroke="#000000" points="231.5204,-128.6448 242.0654,-129.6716 234.4623,-122.293 231.5204,-128.6448"/>
</g>
<!-- ...&#45;&gt;...  -->
<g id="edge27" class="edge">
<title>...&#45;&gt;... </title>
<path fill="none" stroke="#000000" d="M179.1329,-88C194.6199,-88 214.2852,-88 231.24,-88"/>
<polygon fill="#000000" stroke="#000000" points="231.385,-91.5001 241.3849,-88 231.3849,-84.5001 231.385,-91.5001"/>
</g>
<!-- ...&#45;&gt;node30  -->
<g id="edge31" class="edge">
<title>...&#45;&gt;node30 </title>
<path fill="none" stroke="#000000" d="M174.2958,-77.7159C190.2349,-70.3337 212.1086,-60.2029 230.7858,-51.5525"/>
<polygon fill="#000000" stroke="#000000" points="232.3315,-54.6939 239.9346,-47.3153 229.3896,-48.3421 232.3315,-54.6939"/>
</g>
<!-- node20&#45;&gt;node1  -->
<g id="edge20" class="edge">
<title>node20&#45;&gt;node1 </title>
<path fill="none" stroke="#000000" d="M164.5686,-51.3368C185.1686,-79.9595 226.389,-137.2333 250.3215,-170.4862"/>
<polygon fill="#000000" stroke="#000000" points="247.6139,-172.7159 256.2962,-178.7878 253.2954,-168.6268 247.6139,-172.7159"/>
</g>
<!-- node20&#45;&gt;node2  -->
<g id="edge24" class="edge">
<title>node20&#45;&gt;node2 </title>
<path fill="none" stroke="#000000" d="M169.5462,-50.1687C189.3218,-68.4868 221.6981,-98.4769 244.0422,-119.1743"/>
<polygon fill="#000000" stroke="#000000" points="241.7754,-121.8454 251.4901,-126.0733 246.5323,-116.71 241.7754,-121.8454"/>
</g>
<!-- node20&#45;&gt;...  -->
<g id="edge28" class="edge">
<title>node20&#45;&gt;... </title>
<path fill="none" stroke="#000000" d="M179.722,-46.7972C196.8811,-54.7445 218.9953,-64.9867 236.8825,-73.2711"/>
<polygon fill="#000000" stroke="#000000" points="235.7816,-76.6184 246.3266,-77.6452 238.7235,-70.2666 235.7816,-76.6184"/>
</g>
<!-- node20&#45;&gt;node30  -->
<g id="edge32" class="edge">
<title>node20&#45;&gt;node30 </title>
<path fill="none" stroke="#000000" d="M191.2392,-34C199.5127,-34 208.3651,-34 217.0199,-34"/>
<polygon fill="#000000" stroke="#000000" points="217.0427,-37.5001 227.0427,-34 217.0426,-30.5001 217.0427,-37.5001"/>
</g>
<!-- y10 -->
<g id="node13" class="node">
<title>y10</title>
<ellipse fill="none" stroke="#000000" cx="395.2803" cy="-61" rx="27" ry="18"/>
<text text-anchor="middle" x="395.2803" y="-57.3" font-family="Times,serif" font-size="14.00" fill="#000000">y10</text>
</g>
<!-- node1 &#45;&gt;y10 -->
<g id="edge33" class="edge">
<title>node1 &#45;&gt;y10</title>
<path fill="none" stroke="#000000" d="M284.2072,-179.4464C306.682,-155.4796 348.3682,-111.0261 373.7867,-83.9204"/>
<polygon fill="#000000" stroke="#000000" points="376.517,-86.1255 380.8043,-76.4369 371.4109,-81.3372 376.517,-86.1255"/>
</g>
<!-- y1 -->
<g id="node14" class="node">
<title>y1</title>
<ellipse fill="none" stroke="#000000" cx="395.2803" cy="-169" rx="27" ry="18"/>
<text text-anchor="middle" x="395.2803" y="-165.3" font-family="Times,serif" font-size="14.00" fill="#000000">y1</text>
</g>
<!-- node1 &#45;&gt;y1 -->
<g id="edge37" class="edge">
<title>node1 &#45;&gt;y1</title>
<path fill="none" stroke="#000000" d="M302.2771,-188.8354C319.8718,-185.0829 341.4265,-180.4857 359.3535,-176.6623"/>
<polygon fill="#000000" stroke="#000000" points="360.111,-180.0796 369.161,-174.5706 358.6509,-173.2335 360.111,-180.0796"/>
</g>
<!-- . -->
<g id="node15" class="node">
<title>.</title>
<ellipse fill="none" stroke="#000000" cx="395.2803" cy="-115" rx="27" ry="18"/>
<text text-anchor="middle" x="395.2803" y="-111.3" font-family="Times,serif" font-size="14.00" fill="#000000">.</text>
</g>
<!-- node1 &#45;&gt;. -->
<g id="edge41" class="edge">
<title>node1 &#45;&gt;.</title>
<path fill="none" stroke="#000000" d="M291.0254,-181.7053C312.2061,-168.1533 344.1089,-147.7409 367.0422,-133.0675"/>
<polygon fill="#000000" stroke="#000000" points="369.1177,-135.8947 375.6548,-127.557 365.345,-129.9984 369.1177,-135.8947"/>
</g>
<!-- node2 &#45;&gt;y10 -->
<g id="edge34" class="edge">
<title>node2 &#45;&gt;y10</title>
<path fill="none" stroke="#000000" d="M291.0254,-127.7053C312.2061,-114.1533 344.1089,-93.7409 367.0422,-79.0675"/>
<polygon fill="#000000" stroke="#000000" points="369.1177,-81.8947 375.6548,-73.557 365.345,-75.9984 369.1177,-81.8947"/>
</g>
<!-- node2 &#45;&gt;y1 -->
<g id="edge38" class="edge">
<title>node2 &#45;&gt;y1</title>
<path fill="none" stroke="#000000" d="M302.2771,-149.1646C319.8718,-152.9171 341.4265,-157.5143 359.3535,-161.3377"/>
<polygon fill="#000000" stroke="#000000" points="358.6509,-164.7665 369.161,-163.4294 360.111,-157.9204 358.6509,-164.7665"/>
</g>
<!-- node2 &#45;&gt;. -->
<g id="edge42" class="edge">
<title>node2 &#45;&gt;.</title>
<path fill="none" stroke="#000000" d="M302.2771,-134.8354C319.8718,-131.0829 341.4265,-126.4857 359.3535,-122.6623"/>
<polygon fill="#000000" stroke="#000000" points="360.111,-126.0796 369.161,-120.5706 358.6509,-119.2335 360.111,-126.0796"/>
</g>
<!-- ... &#45;&gt;y10 -->
<g id="edge35" class="edge">
<title>... &#45;&gt;y10</title>
<path fill="none" stroke="#000000" d="M294.6081,-82.471C313.2969,-78.4851 338.7578,-73.0549 359.398,-68.6528"/>
<polygon fill="#000000" stroke="#000000" points="360.3408,-72.0306 369.3908,-66.5216 358.8807,-65.1845 360.3408,-72.0306"/>
</g>
<!-- ... &#45;&gt;y1 -->
<g id="edge39" class="edge">
<title>... &#45;&gt;y1</title>
<path fill="none" stroke="#000000" d="M288.1872,-100.4787C309.2205,-113.9365 342.9081,-135.4908 366.8808,-150.8292"/>
<polygon fill="#000000" stroke="#000000" points="365.2366,-153.9323 375.5463,-156.3736 369.0093,-148.0359 365.2366,-153.9323"/>
</g>
<!-- ... &#45;&gt;. -->
<g id="edge43" class="edge">
<title>... &#45;&gt;.</title>
<path fill="none" stroke="#000000" d="M294.6081,-93.529C313.2969,-97.5149 338.7578,-102.9451 359.398,-107.3472"/>
<polygon fill="#000000" stroke="#000000" points="358.8807,-110.8155 369.3908,-109.4784 360.3408,-103.9694 358.8807,-110.8155"/>
</g>
<!-- node30 &#45;&gt;y10 -->
<g id="edge36" class="edge">
<title>node30 &#45;&gt;y10</title>
<path fill="none" stroke="#000000" d="M306.3243,-42.0278C323.1038,-45.6065 342.7789,-49.8027 359.3531,-53.3376"/>
<polygon fill="#000000" stroke="#000000" points="358.7084,-56.7787 369.2185,-55.4416 360.1685,-49.9327 358.7084,-56.7787"/>
</g>
<!-- node30 &#45;&gt;y1 -->
<g id="edge40" class="edge">
<title>node30 &#45;&gt;y1</title>
<path fill="none" stroke="#000000" d="M284.4615,-50.8249C307.0238,-74.8849 348.5688,-119.1877 373.8827,-146.182"/>
<polygon fill="#000000" stroke="#000000" points="371.4773,-148.7336 380.8707,-153.6339 376.5834,-143.9453 371.4773,-148.7336"/>
</g>
<!-- node30 &#45;&gt;. -->
<g id="edge44" class="edge">
<title>node30 &#45;&gt;.</title>
<path fill="none" stroke="#000000" d="M292.1991,-49.0456C313.4093,-62.6166 344.6418,-82.6 367.1647,-97.0109"/>
<polygon fill="#000000" stroke="#000000" points="365.3201,-99.9857 375.6298,-102.4271 369.0928,-94.0893 365.3201,-99.9857"/>
</g>
</g>
</svg>
