<?xml version="1.0" encoding="UTF-8" standalone="no"?>
<!DOCTYPE svg PUBLIC "-//W3C//DTD SVG 1.1//EN"
 "http://www.w3.org/Graphics/SVG/1.1/DTD/svg11.dtd">
<!-- Generated by graphviz version 2.40.1 (20161225.0304)
 -->
<!-- Title: G Pages: 1 -->
<svg width="556pt" height="435pt"
 viewBox="0.00 0.00 555.58 435.00" xmlns="http://www.w3.org/2000/svg" xmlns:xlink="http://www.w3.org/1999/xlink">
<g id="graph0" class="graph" transform="scale(1 1) rotate(0) translate(4 431)">
<title>G</title>
<polygon fill="#ffffff" stroke="transparent" points="-4,4 -4,-431 551.5755,-431 551.5755,4 -4,4"/>
<!-- 1 -->
<g id="node1" class="node">
<title>1</title>
<ellipse fill="none" stroke="#000000" cx="27" cy="-72" rx="27" ry="18"/>
<text text-anchor="middle" x="27" y="-68.3" font-family="Times,serif" font-size="14.00" fill="#000000">1</text>
</g>
<!-- β̂₀ + xₙ*β̂₁, &#160;&#160;&#160;bias=False -->
<g id="node2" class="node">
<title>β̂₀ + xₙ*β̂₁, &#160;&#160;&#160;bias=False</title>
<ellipse fill="none" stroke="#000000" cx="275.7878" cy="-58" rx="137.5759" ry="18"/>
<text text-anchor="middle" x="275.7878" y="-54.3" font-family="Times,serif" font-size="14.00" fill="#000000">β̂₀ + xₙ*β̂₁, &#160;&#160;&#160;bias=False</text>
</g>
<!-- 1&#45;&gt;β̂₀ + xₙ*β̂₁, &#160;&#160;&#160;bias=False -->
<g id="edge1" class="edge">
<title>1&#45;&gt;β̂₀ + xₙ*β̂₁, &#160;&#160;&#160;bias=False</title>
<path fill="none" stroke="#000000" d="M54.0983,-70.4751C75.3267,-69.2805 106.6059,-67.5204 139.017,-65.6965"/>
<polygon fill="#000000" stroke="#000000" points="139.3145,-69.1854 149.102,-65.129 138.9212,-62.1964 139.3145,-69.1854"/>
<text text-anchor="middle" x="96" y="-73.8" font-family="Times,serif" font-size="14.00" fill="#000000">* β̂₀</text>
</g>
<!-- ŷₙ -->
<g id="node4" class="node">
<title>ŷₙ</title>
<ellipse fill="none" stroke="#000000" cx="520.5755" cy="-58" rx="27" ry="18"/>
<text text-anchor="middle" x="520.5755" y="-54.3" font-family="Times,serif" font-size="14.00" fill="#000000">ŷₙ</text>
</g>
<!-- β̂₀ + xₙ*β̂₁, &#160;&#160;&#160;bias=False&#45;&gt;ŷₙ -->
<g id="edge3" class="edge">
<title>β̂₀ + xₙ*β̂₁, &#160;&#160;&#160;bias=False&#45;&gt;ŷₙ</title>
<path fill="none" stroke="#000000" d="M413.9202,-58C439.5407,-58 464.2257,-58 483.3835,-58"/>
<polygon fill="#000000" stroke="#000000" points="483.429,-61.5001 493.429,-58 483.4289,-54.5001 483.429,-61.5001"/>
<text text-anchor="middle" x="453.5755" y="-61.8" font-family="Times,serif" font-size="14.00" fill="#000000">identity</text>
</g>
<!-- xₙ -->
<g id="node3" class="node">
<title>xₙ</title>
<ellipse fill="none" stroke="#000000" cx="27" cy="-18" rx="27" ry="18"/>
<text text-anchor="middle" x="27" y="-14.3" font-family="Times,serif" font-size="14.00" fill="#000000">xₙ</text>
</g>
<!-- xₙ&#45;&gt;β̂₀ + xₙ*β̂₁, &#160;&#160;&#160;bias=False -->
<g id="edge2" class="edge">
<title>xₙ&#45;&gt;β̂₀ + xₙ*β̂₁, &#160;&#160;&#160;bias=False</title>
<path fill="none" stroke="#000000" d="M53.6246,-22.2807C83.4585,-27.0774 133.5612,-35.1329 178.6425,-42.381"/>
<polygon fill="#000000" stroke="#000000" points="178.3451,-45.8781 188.7739,-44.0099 179.4563,-38.9668 178.3451,-45.8781"/>
<text text-anchor="middle" x="96" y="-36.8" font-family="Times,serif" font-size="14.00" fill="#000000">* β̂₁</text>
</g>
<!-- . -->
<g id="node5" class="node">
<title>.</title>
<ellipse fill="none" stroke="#000000" cx="27" cy="-193" rx="27" ry="18"/>
<text text-anchor="middle" x="27" y="-189.3" font-family="Times,serif" font-size="14.00" fill="#000000">.</text>
</g>
<!-- .................................... -->
<g id="node6" class="node">
<title>....................................</title>
<ellipse fill="none" stroke="#000000" cx="275.7878" cy="-139" rx="98.5829" ry="18"/>
<text text-anchor="middle" x="275.7878" y="-135.3" font-family="Times,serif" font-size="14.00" fill="#000000">....................................</text>
</g>
<!-- .&#45;&gt;.................................... -->
<g id="edge4" class="edge">
<title>.&#45;&gt;....................................</title>
<path fill="none" stroke="#000000" d="M52.6876,-187.4244C87.663,-179.8329 151.694,-165.9349 202.2169,-154.9687"/>
<polygon fill="#000000" stroke="#000000" points="203.0988,-158.3589 212.1288,-152.8173 201.6139,-151.5182 203.0988,-158.3589"/>
<text text-anchor="middle" x="96" y="-185.8" font-family="Times,serif" font-size="14.00" fill="#000000">* β̂₀</text>
</g>
<!-- ... -->
<g id="node8" class="node">
<title>...</title>
<ellipse fill="none" stroke="#000000" cx="520.5755" cy="-139" rx="27" ry="18"/>
<text text-anchor="middle" x="520.5755" y="-135.3" font-family="Times,serif" font-size="14.00" fill="#000000">...</text>
</g>
<!-- ....................................&#45;&gt;... -->
<g id="edge6" class="edge">
<title>....................................&#45;&gt;...</title>
<path fill="none" stroke="#000000" d="M374.6467,-139C412.9363,-139 454.4193,-139 483.3337,-139"/>
<polygon fill="#000000" stroke="#000000" points="483.3885,-142.5001 493.3885,-139 483.3884,-135.5001 483.3885,-142.5001"/>
<text text-anchor="middle" x="453.5755" y="-142.8" font-family="Times,serif" font-size="14.00" fill="#000000"> </text>
</g>
<!-- .. -->
<g id="node7" class="node">
<title>..</title>
<ellipse fill="none" stroke="#000000" cx="27" cy="-139" rx="27" ry="18"/>
<text text-anchor="middle" x="27" y="-135.3" font-family="Times,serif" font-size="14.00" fill="#000000">..</text>
</g>
<!-- ..&#45;&gt;.................................... -->
<g id="edge5" class="edge">
<title>..&#45;&gt;....................................</title>
<path fill="none" stroke="#000000" d="M54.0983,-139C81.323,-139 125.0784,-139 166.5521,-139"/>
<polygon fill="#000000" stroke="#000000" points="166.7538,-142.5001 176.7538,-139 166.7538,-135.5001 166.7538,-142.5001"/>
<text text-anchor="middle" x="96" y="-142.8" font-family="Times,serif" font-size="14.00" fill="#000000">* β̂₁</text>
</g>
<!-- 1  -->
<g id="node9" class="node">
<title>1 </title>
<ellipse fill="none" stroke="#000000" cx="27" cy="-301" rx="27" ry="18"/>
<text text-anchor="middle" x="27" y="-297.3" font-family="Times,serif" font-size="14.00" fill="#000000">1 </text>
</g>
<!-- β̂₀ + x₂*β̂₁, &#160;&#160;&#160;bias=False -->
<g id="node10" class="node">
<title>β̂₀ + x₂*β̂₁, &#160;&#160;&#160;bias=False</title>
<ellipse fill="none" stroke="#000000" cx="275.7878" cy="-274" rx="137.5759" ry="18"/>
<text text-anchor="middle" x="275.7878" y="-270.3" font-family="Times,serif" font-size="14.00" fill="#000000">β̂₀ + x₂*β̂₁, &#160;&#160;&#160;bias=False</text>
</g>
<!-- 1 &#45;&gt;β̂₀ + x₂*β̂₁, &#160;&#160;&#160;bias=False -->
<g id="edge7" class="edge">
<title>1 &#45;&gt;β̂₀ + x₂*β̂₁, &#160;&#160;&#160;bias=False</title>
<path fill="none" stroke="#000000" d="M54.0983,-298.0591C79.8142,-295.2683 120.2793,-290.8767 159.6388,-286.6052"/>
<polygon fill="#000000" stroke="#000000" points="160.048,-290.0814 169.612,-285.5229 159.2927,-283.1223 160.048,-290.0814"/>
<text text-anchor="middle" x="96" y="-298.8" font-family="Times,serif" font-size="14.00" fill="#000000">* β̂₀</text>
</g>
<!-- ŷ₂ -->
<g id="node12" class="node">
<title>ŷ₂</title>
<ellipse fill="none" stroke="#000000" cx="520.5755" cy="-274" rx="27" ry="18"/>
<text text-anchor="middle" x="520.5755" y="-270.3" font-family="Times,serif" font-size="14.00" fill="#000000">ŷ₂</text>
</g>
<!-- β̂₀ + x₂*β̂₁, &#160;&#160;&#160;bias=False&#45;&gt;ŷ₂ -->
<g id="edge9" class="edge">
<title>β̂₀ + x₂*β̂₁, &#160;&#160;&#160;bias=False&#45;&gt;ŷ₂</title>
<path fill="none" stroke="#000000" d="M413.9202,-274C439.5407,-274 464.2257,-274 483.3835,-274"/>
<polygon fill="#000000" stroke="#000000" points="483.429,-277.5001 493.429,-274 483.4289,-270.5001 483.429,-277.5001"/>
<text text-anchor="middle" x="453.5755" y="-277.8" font-family="Times,serif" font-size="14.00" fill="#000000">identity</text>
</g>
<!-- x₂ -->
<g id="node11" class="node">
<title>x₂</title>
<ellipse fill="none" stroke="#000000" cx="27" cy="-247" rx="27" ry="18"/>
<text text-anchor="middle" x="27" y="-243.3" font-family="Times,serif" font-size="14.00" fill="#000000">x₂</text>
</g>
<!-- x₂&#45;&gt;β̂₀ + x₂*β̂₁, &#160;&#160;&#160;bias=False -->
<g id="edge8" class="edge">
<title>x₂&#45;&gt;β̂₀ + x₂*β̂₁, &#160;&#160;&#160;bias=False</title>
<path fill="none" stroke="#000000" d="M54.0983,-249.9409C79.8142,-252.7317 120.2793,-257.1233 159.6388,-261.3948"/>
<polygon fill="#000000" stroke="#000000" points="159.2927,-264.8777 169.612,-262.4771 160.048,-257.9186 159.2927,-264.8777"/>
<text text-anchor="middle" x="96" y="-259.8" font-family="Times,serif" font-size="14.00" fill="#000000">* β̂₁</text>
</g>
<!-- 1 &#160; -->
<g id="node13" class="node">
<title>1 &#160;</title>
<ellipse fill="none" stroke="#000000" cx="27" cy="-409" rx="27" ry="18"/>
<text text-anchor="middle" x="27" y="-405.3" font-family="Times,serif" font-size="14.00" fill="#000000">1 &#160;</text>
</g>
<!-- β̂₀ + x₁*β̂₁, &#160;&#160;&#160;bias=False -->
<g id="node14" class="node">
<title>β̂₀ + x₁*β̂₁, &#160;&#160;&#160;bias=False</title>
<ellipse fill="none" stroke="#000000" cx="275.7878" cy="-382" rx="137.5759" ry="18"/>
<text text-anchor="middle" x="275.7878" y="-378.3" font-family="Times,serif" font-size="14.00" fill="#000000">β̂₀ + x₁*β̂₁, &#160;&#160;&#160;bias=False</text>
</g>
<!-- 1 &#160;&#45;&gt;β̂₀ + x₁*β̂₁, &#160;&#160;&#160;bias=False -->
<g id="edge10" class="edge">
<title>1 &#160;&#45;&gt;β̂₀ + x₁*β̂₁, &#160;&#160;&#160;bias=False</title>
<path fill="none" stroke="#000000" d="M54.0983,-406.0591C79.8142,-403.2683 120.2793,-398.8767 159.6388,-394.6052"/>
<polygon fill="#000000" stroke="#000000" points="160.048,-398.0814 169.612,-393.5229 159.2927,-391.1223 160.048,-398.0814"/>
<text text-anchor="middle" x="96" y="-406.8" font-family="Times,serif" font-size="14.00" fill="#000000">* β̂₀</text>
</g>
<!-- ŷ₁ -->
<g id="node16" class="node">
<title>ŷ₁</title>
<ellipse fill="none" stroke="#000000" cx="520.5755" cy="-382" rx="27" ry="18"/>
<text text-anchor="middle" x="520.5755" y="-378.3" font-family="Times,serif" font-size="14.00" fill="#000000">ŷ₁</text>
</g>
<!-- β̂₀ + x₁*β̂₁, &#160;&#160;&#160;bias=False&#45;&gt;ŷ₁ -->
<g id="edge12" class="edge">
<title>β̂₀ + x₁*β̂₁, &#160;&#160;&#160;bias=False&#45;&gt;ŷ₁</title>
<path fill="none" stroke="#000000" d="M413.9202,-382C439.5407,-382 464.2257,-382 483.3835,-382"/>
<polygon fill="#000000" stroke="#000000" points="483.429,-385.5001 493.429,-382 483.4289,-378.5001 483.429,-385.5001"/>
<text text-anchor="middle" x="453.5755" y="-385.8" font-family="Times,serif" font-size="14.00" fill="#000000">identity</text>
</g>
<!-- x₁ -->
<g id="node15" class="node">
<title>x₁</title>
<ellipse fill="none" stroke="#000000" cx="27" cy="-355" rx="27" ry="18"/>
<text text-anchor="middle" x="27" y="-351.3" font-family="Times,serif" font-size="14.00" fill="#000000">x₁</text>
</g>
<!-- x₁&#45;&gt;β̂₀ + x₁*β̂₁, &#160;&#160;&#160;bias=False -->
<g id="edge11" class="edge">
<title>x₁&#45;&gt;β̂₀ + x₁*β̂₁, &#160;&#160;&#160;bias=False</title>
<path fill="none" stroke="#000000" d="M54.0983,-357.9409C79.8142,-360.7317 120.2793,-365.1233 159.6388,-369.3948"/>
<polygon fill="#000000" stroke="#000000" points="159.2927,-372.8777 169.612,-370.4771 160.048,-365.9186 159.2927,-372.8777"/>
<text text-anchor="middle" x="96" y="-367.8" font-family="Times,serif" font-size="14.00" fill="#000000">* β̂₁</text>
</g>
</g>
</svg>
