<?xml version="1.0" encoding="UTF-8" standalone="no"?>
<!DOCTYPE svg PUBLIC "-//W3C//DTD SVG 1.1//EN"
 "http://www.w3.org/Graphics/SVG/1.1/DTD/svg11.dtd">
<!-- Generated by graphviz version 2.40.1 (20161225.0304)
 -->
<!-- Title: G Pages: 1 -->
<svg width="381pt" height="44pt"
 viewBox="0.00 0.00 381.09 44.00" xmlns="http://www.w3.org/2000/svg" xmlns:xlink="http://www.w3.org/1999/xlink">
<g id="graph0" class="graph" transform="scale(1 1) rotate(0) translate(4 40)">
<title>G</title>
<polygon fill="#ffffff" stroke="transparent" points="-4,4 -4,-40 377.0865,-40 377.0865,4 -4,4"/>
<!-- x -->
<g id="node1" class="node">
<title>x</title>
<ellipse fill="none" stroke="#000000" cx="27" cy="-18" rx="27" ry="18"/>
<text text-anchor="middle" x="27" y="-14.3" font-family="Times,serif" font-size="14.00" fill="#000000">x</text>
</g>
<!-- x*w, &#160;&#160;&#160;bias=True -->
<g id="node2" class="node">
<title>x*w, &#160;&#160;&#160;bias=True</title>
<ellipse fill="none" stroke="#000000" cx="185.0433" cy="-18" rx="76.0865" ry="18"/>
<text text-anchor="middle" x="185.0433" y="-14.3" font-family="Times,serif" font-size="14.00" fill="#000000">x*w, &#160;&#160;&#160;bias=True</text>
</g>
<!-- x&#45;&gt;x*w, &#160;&#160;&#160;bias=True -->
<g id="edge1" class="edge">
<title>x&#45;&gt;x*w, &#160;&#160;&#160;bias=True</title>
<path fill="none" stroke="#000000" d="M54.1686,-18C66.8126,-18 82.6277,-18 98.8492,-18"/>
<polygon fill="#000000" stroke="#000000" points="98.9773,-21.5001 108.9773,-18 98.9772,-14.5001 98.9773,-21.5001"/>
<text text-anchor="middle" x="81.5" y="-21.8" font-family="Times,serif" font-size="14.00" fill="#000000">*w</text>
</g>
<!-- y -->
<g id="node3" class="node">
<title>y</title>
<ellipse fill="none" stroke="#000000" cx="346.0865" cy="-18" rx="27" ry="18"/>
<text text-anchor="middle" x="346.0865" y="-14.3" font-family="Times,serif" font-size="14.00" fill="#000000">y</text>
</g>
<!-- x*w, &#160;&#160;&#160;bias=True&#45;&gt;y -->
<g id="edge2" class="edge">
<title>x*w, &#160;&#160;&#160;bias=True&#45;&gt;y</title>
<path fill="none" stroke="#000000" d="M261.3204,-18C277.7757,-18 294.468,-18 308.6382,-18"/>
<polygon fill="#000000" stroke="#000000" points="308.9371,-21.5001 318.937,-18 308.937,-14.5001 308.9371,-21.5001"/>
<text text-anchor="middle" x="290.0865" y="-21.8" font-family="Times,serif" font-size="14.00" fill="#000000">relu</text>
</g>
</g>
</svg>
