<?xml version="1.0" encoding="UTF-8" standalone="no"?>
<!DOCTYPE svg PUBLIC "-//W3C//DTD SVG 1.1//EN"
 "http://www.w3.org/Graphics/SVG/1.1/DTD/svg11.dtd">
<!-- Generated by graphviz version 2.43.0 (0)
 -->
<!-- Title: G Pages: 1 -->
<svg width="315pt" height="153pt"
 viewBox="0.00 0.00 315.19 153.00" xmlns="http://www.w3.org/2000/svg" xmlns:xlink="http://www.w3.org/1999/xlink">
<g id="graph0" class="graph" transform="scale(1 1) rotate(0) translate(4 149)">
<title>G</title>
<polygon fill="white" stroke="transparent" points="-4,4 -4,-149 311.19,-149 311.19,4 -4,4"/>
<g id="clust1" class="cluster">
<title>cluster_1</title>
<polygon fill="lightgrey" stroke="lightgrey" points="8,-35 8,-110 78,-110 78,-35 8,-35"/>
<text text-anchor="middle" x="43" y="-94.8" font-family="Times,serif" font-size="14.00">Layer 0</text>
</g>
<g id="clust2" class="cluster">
<title>cluster_2</title>
<polygon fill="lightgrey" stroke="lightgrey" points="98,-8 98,-137 180.99,-137 180.99,-8 98,-8"/>
<text text-anchor="middle" x="139.5" y="-121.8" font-family="Times,serif" font-size="14.00">Layer 1:relu</text>
</g>
<g id="clust3" class="cluster">
<title>cluster_3</title>
<polygon fill="lightgrey" stroke="lightgrey" points="200.99,-35 200.99,-110 307.19,-110 307.19,-35 200.99,-35"/>
<text text-anchor="middle" x="254.09" y="-94.8" font-family="Times,serif" font-size="14.00">Layer 2:sigmoid</text>
</g>
<!-- X -->
<g id="node1" class="node">
<title>X</title>
<ellipse fill="none" stroke="black" cx="43" cy="-61" rx="27" ry="18"/>
<text text-anchor="middle" x="43" y="-57.3" font-family="Times,serif" font-size="14.00">X</text>
</g>
<!-- node1 -->
<g id="node2" class="node">
<title>node1</title>
<ellipse fill="none" stroke="black" cx="139.5" cy="-88" rx="32.49" ry="18"/>
<text text-anchor="middle" x="139.5" y="-84.3" font-family="Times,serif" font-size="14.00">node1</text>
</g>
<!-- X&#45;&gt;node1 -->
<g id="edge1" class="edge">
<title>X&#45;&gt;node1</title>
<path fill="none" stroke="black" d="M68.34,-67.95C78.13,-70.75 89.66,-74.05 100.52,-77.15"/>
<polygon fill="black" stroke="black" points="99.65,-80.54 110.22,-79.92 101.57,-73.81 99.65,-80.54"/>
</g>
<!-- node2 -->
<g id="node3" class="node">
<title>node2</title>
<ellipse fill="none" stroke="black" cx="139.5" cy="-34" rx="32.49" ry="18"/>
<text text-anchor="middle" x="139.5" y="-30.3" font-family="Times,serif" font-size="14.00">node2</text>
</g>
<!-- X&#45;&gt;node2 -->
<g id="edge2" class="edge">
<title>X&#45;&gt;node2</title>
<path fill="none" stroke="black" d="M68.34,-54.05C78.13,-51.25 89.66,-47.95 100.52,-44.85"/>
<polygon fill="black" stroke="black" points="101.57,-48.19 110.22,-42.08 99.65,-41.46 101.57,-48.19"/>
</g>
<!-- yhat  -->
<g id="node4" class="node">
<title>yhat </title>
<ellipse fill="none" stroke="black" cx="253.59" cy="-61" rx="28.7" ry="18"/>
<text text-anchor="middle" x="253.59" y="-57.3" font-family="Times,serif" font-size="14.00">yhat </text>
</g>
<!-- node1&#45;&gt;yhat  -->
<g id="edge3" class="edge">
<title>node1&#45;&gt;yhat </title>
<path fill="none" stroke="black" d="M169.66,-80.98C183.99,-77.52 201.4,-73.33 216.57,-69.68"/>
<polygon fill="black" stroke="black" points="217.73,-73 226.64,-67.25 216.1,-66.19 217.73,-73"/>
</g>
<!-- node2&#45;&gt;yhat  -->
<g id="edge4" class="edge">
<title>node2&#45;&gt;yhat </title>
<path fill="none" stroke="black" d="M169.66,-41.02C183.99,-44.48 201.4,-48.67 216.57,-52.32"/>
<polygon fill="black" stroke="black" points="216.1,-55.81 226.64,-54.75 217.73,-49 216.1,-55.81"/>
</g>
</g>
</svg>
