<?xml version="1.0" encoding="UTF-8" standalone="no"?>
<!DOCTYPE svg PUBLIC "-//W3C//DTD SVG 1.1//EN"
 "http://www.w3.org/Graphics/SVG/1.1/DTD/svg11.dtd">
<!-- Generated by graphviz version 2.43.0 (0)
 -->
<!-- Title: G Pages: 1 -->
<svg width="582pt" height="98pt"
 viewBox="0.00 0.00 582.38 98.00" xmlns="http://www.w3.org/2000/svg" xmlns:xlink="http://www.w3.org/1999/xlink">
<g id="graph0" class="graph" transform="scale(1 1) rotate(0) translate(4 94)">
<title>G</title>
<polygon fill="white" stroke="transparent" points="-4,4 -4,-94 578.38,-94 578.38,4 -4,4"/>
<!-- x -->
<g id="node1" class="node">
<title>x</title>
<ellipse fill="none" stroke="black" cx="27" cy="-45" rx="27" ry="18"/>
<text text-anchor="middle" x="27" y="-41.3" font-family="Times,serif" font-size="14.00">x</text>
</g>
<!-- u1[:,0] -->
<g id="node2" class="node">
<title>u1[:,0]</title>
<ellipse fill="none" stroke="black" cx="152.45" cy="-72" rx="34.39" ry="18"/>
<text text-anchor="middle" x="152.45" y="-68.3" font-family="Times,serif" font-size="14.00">u1[:,0]</text>
</g>
<!-- x&#45;&gt;u1[:,0] -->
<g id="edge1" class="edge">
<title>x&#45;&gt;u1[:,0]</title>
<path fill="none" stroke="black" d="M52.98,-50.46C69.46,-54.07 91.44,-58.88 110.45,-63.03"/>
<polygon fill="black" stroke="black" points="109.85,-66.48 120.37,-65.2 111.34,-59.65 109.85,-66.48"/>
<text text-anchor="middle" x="86" y="-63.8" font-family="Times,serif" font-size="14.00">*(&#45;1)</text>
</g>
<!-- u1[:,1] -->
<g id="node3" class="node">
<title>u1[:,1]</title>
<ellipse fill="none" stroke="black" cx="152.45" cy="-18" rx="34.39" ry="18"/>
<text text-anchor="middle" x="152.45" y="-14.3" font-family="Times,serif" font-size="14.00">u1[:,1]</text>
</g>
<!-- x&#45;&gt;u1[:,1] -->
<g id="edge2" class="edge">
<title>x&#45;&gt;u1[:,1]</title>
<path fill="none" stroke="black" d="M52.98,-39.54C69.46,-35.93 91.44,-31.12 110.45,-26.97"/>
<polygon fill="black" stroke="black" points="111.34,-30.35 120.37,-24.8 109.85,-23.52 111.34,-30.35"/>
<text text-anchor="middle" x="86" y="-37.8" font-family="Times,serif" font-size="14.00">*1</text>
</g>
<!-- v1[:,0] -->
<g id="node4" class="node">
<title>v1[:,0]</title>
<ellipse fill="none" stroke="black" cx="279.34" cy="-72" rx="34.39" ry="18"/>
<text text-anchor="middle" x="279.34" y="-68.3" font-family="Times,serif" font-size="14.00">v1[:,0]</text>
</g>
<!-- u1[:,0]&#45;&gt;v1[:,0] -->
<g id="edge3" class="edge">
<title>u1[:,0]&#45;&gt;v1[:,0]</title>
<path fill="none" stroke="black" d="M186.92,-72C201.62,-72 219.07,-72 234.76,-72"/>
<polygon fill="black" stroke="black" points="234.78,-75.5 244.78,-72 234.78,-68.5 234.78,-75.5"/>
<text text-anchor="middle" x="215.89" y="-75.8" font-family="Times,serif" font-size="14.00">relu</text>
</g>
<!-- v1[:,1] -->
<g id="node5" class="node">
<title>v1[:,1]</title>
<ellipse fill="none" stroke="black" cx="279.34" cy="-18" rx="34.39" ry="18"/>
<text text-anchor="middle" x="279.34" y="-14.3" font-family="Times,serif" font-size="14.00">v1[:,1]</text>
</g>
<!-- u1[:,1]&#45;&gt;v1[:,1] -->
<g id="edge4" class="edge">
<title>u1[:,1]&#45;&gt;v1[:,1]</title>
<path fill="none" stroke="black" d="M186.92,-18C201.62,-18 219.07,-18 234.76,-18"/>
<polygon fill="black" stroke="black" points="234.78,-21.5 244.78,-18 234.78,-14.5 234.78,-21.5"/>
<text text-anchor="middle" x="215.89" y="-21.8" font-family="Times,serif" font-size="14.00">relu</text>
</g>
<!-- u2 -->
<g id="node6" class="node">
<title>u2</title>
<ellipse fill="none" stroke="black" cx="414.79" cy="-45" rx="27" ry="18"/>
<text text-anchor="middle" x="414.79" y="-41.3" font-family="Times,serif" font-size="14.00">u2</text>
</g>
<!-- v1[:,0]&#45;&gt;u2 -->
<g id="edge5" class="edge">
<title>v1[:,0]&#45;&gt;u2</title>
<path fill="none" stroke="black" d="M311.63,-65.67C331.66,-61.62 357.7,-56.35 378.48,-52.14"/>
<polygon fill="black" stroke="black" points="379.39,-55.53 388.5,-50.12 378.01,-48.67 379.39,-55.53"/>
<text text-anchor="middle" x="350.79" y="-63.8" font-family="Times,serif" font-size="14.00">*(&#45;9.0)</text>
</g>
<!-- v1[:,1]&#45;&gt;u2 -->
<g id="edge6" class="edge">
<title>v1[:,1]&#45;&gt;u2</title>
<path fill="none" stroke="black" d="M312.27,-23.78C329.36,-26.95 350.75,-31.03 369.79,-35 372.83,-35.64 375.99,-36.31 379.16,-37.01"/>
<polygon fill="black" stroke="black" points="378.63,-40.48 389.15,-39.24 380.16,-33.64 378.63,-40.48"/>
<text text-anchor="middle" x="350.79" y="-38.8" font-family="Times,serif" font-size="14.00">*(&#45;4.5)</text>
</g>
<!-- v2=yhat -->
<g id="node7" class="node">
<title>v2=yhat</title>
<ellipse fill="none" stroke="black" cx="534.08" cy="-45" rx="40.09" ry="18"/>
<text text-anchor="middle" x="534.08" y="-41.3" font-family="Times,serif" font-size="14.00">v2=yhat</text>
</g>
<!-- u2&#45;&gt;v2=yhat -->
<g id="edge7" class="edge">
<title>u2&#45;&gt;v2=yhat</title>
<path fill="none" stroke="black" d="M441.82,-45C454.09,-45 469.16,-45 483.49,-45"/>
<polygon fill="black" stroke="black" points="483.75,-48.5 493.75,-45 483.75,-41.5 483.75,-48.5"/>
<text text-anchor="middle" x="467.79" y="-48.8" font-family="Times,serif" font-size="14.00">sig</text>
</g>
</g>
</svg>
