<?xml version="1.0" encoding="UTF-8" standalone="no"?>
<!DOCTYPE svg PUBLIC "-//W3C//DTD SVG 1.1//EN"
 "http://www.w3.org/Graphics/SVG/1.1/DTD/svg11.dtd">
<!-- Generated by graphviz version 2.43.0 (0)
 -->
<!-- Title: G Pages: 1 -->
<svg width="335pt" height="261pt"
 viewBox="0.00 0.00 334.99 261.00" xmlns="http://www.w3.org/2000/svg" xmlns:xlink="http://www.w3.org/1999/xlink">
<g id="graph0" class="graph" transform="scale(1 1) rotate(0) translate(4 257)">
<title>G</title>
<polygon fill="white" stroke="transparent" points="-4,4 -4,-257 330.99,-257 330.99,4 -4,4"/>
<g id="clust1" class="cluster">
<title>cluster_1</title>
<polygon fill="lightgrey" stroke="lightgrey" points="8,-8 8,-245 78,-245 78,-8 8,-8"/>
<text text-anchor="middle" x="43" y="-229.8" font-family="Times,serif" font-size="14.00">Layer ?</text>
</g>
<g id="clust2" class="cluster">
<title>cluster_2</title>
<polygon fill="lightgrey" stroke="lightgrey" points="98,-8 98,-245 204.99,-245 204.99,-8 98,-8"/>
<text text-anchor="middle" x="151.5" y="-229.8" font-family="Times,serif" font-size="14.00">Layer: ReLU</text>
</g>
<g id="clust3" class="cluster">
<title>cluster_3</title>
<polygon fill="lightgrey" stroke="lightgrey" points="224.99,-62 224.99,-191 326.99,-191 326.99,-62 224.99,-62"/>
<text text-anchor="middle" x="275.99" y="-175.8" font-family="Times,serif" font-size="14.00">Layer: Softmax</text>
</g>
<!-- ? -->
<g id="node1" class="node">
<title>?</title>
<ellipse fill="none" stroke="black" cx="43" cy="-196" rx="27" ry="18"/>
<text text-anchor="middle" x="43" y="-192.3" font-family="Times,serif" font-size="14.00">?</text>
</g>
<!-- node1 -->
<g id="node5" class="node">
<title>node1</title>
<ellipse fill="none" stroke="black" cx="151.5" cy="-196" rx="32.49" ry="18"/>
<text text-anchor="middle" x="151.5" y="-192.3" font-family="Times,serif" font-size="14.00">node1</text>
</g>
<!-- ?&#45;&gt;node1 -->
<g id="edge1" class="edge">
<title>?&#45;&gt;node1</title>
<path fill="none" stroke="black" d="M70.05,-196C81.62,-196 95.52,-196 108.49,-196"/>
<polygon fill="black" stroke="black" points="108.63,-199.5 118.63,-196 108.63,-192.5 108.63,-199.5"/>
</g>
<!-- node2 -->
<g id="node6" class="node">
<title>node2</title>
<ellipse fill="none" stroke="black" cx="151.5" cy="-142" rx="32.49" ry="18"/>
<text text-anchor="middle" x="151.5" y="-138.3" font-family="Times,serif" font-size="14.00">node2</text>
</g>
<!-- ?&#45;&gt;node2 -->
<g id="edge5" class="edge">
<title>?&#45;&gt;node2</title>
<path fill="none" stroke="black" d="M65.04,-185.33C80.08,-177.71 100.6,-167.3 117.77,-158.59"/>
<polygon fill="black" stroke="black" points="119.57,-161.61 126.9,-153.96 116.4,-155.36 119.57,-161.61"/>
</g>
<!-- ... -->
<g id="node7" class="node">
<title>...</title>
<ellipse fill="none" stroke="black" cx="151.5" cy="-88" rx="27" ry="18"/>
<text text-anchor="middle" x="151.5" y="-84.3" font-family="Times,serif" font-size="14.00">...</text>
</g>
<!-- ?&#45;&gt;... -->
<g id="edge9" class="edge">
<title>?&#45;&gt;...</title>
<path fill="none" stroke="black" d="M58.81,-180.98C76.93,-162.61 107.77,-131.33 128.62,-110.18"/>
<polygon fill="black" stroke="black" points="131.28,-112.47 135.81,-102.89 126.3,-107.55 131.28,-112.47"/>
</g>
<!-- node2304 -->
<g id="node8" class="node">
<title>node2304</title>
<ellipse fill="none" stroke="black" cx="151.5" cy="-34" rx="45.49" ry="18"/>
<text text-anchor="middle" x="151.5" y="-30.3" font-family="Times,serif" font-size="14.00">node2304</text>
</g>
<!-- ?&#45;&gt;node2304 -->
<g id="edge13" class="edge">
<title>?&#45;&gt;node2304</title>
<path fill="none" stroke="black" d="M54.8,-179.58C73.34,-151.37 111.37,-93.51 133.5,-59.85"/>
<polygon fill="black" stroke="black" points="136.46,-61.72 139.03,-51.45 130.61,-57.88 136.46,-61.72"/>
</g>
<!-- ?? -->
<g id="node2" class="node">
<title>??</title>
<ellipse fill="none" stroke="black" cx="43" cy="-142" rx="27" ry="18"/>
<text text-anchor="middle" x="43" y="-138.3" font-family="Times,serif" font-size="14.00">??</text>
</g>
<!-- ??&#45;&gt;node1 -->
<g id="edge2" class="edge">
<title>??&#45;&gt;node1</title>
<path fill="none" stroke="black" d="M65.04,-152.67C80.08,-160.29 100.6,-170.7 117.77,-179.41"/>
<polygon fill="black" stroke="black" points="116.4,-182.64 126.9,-184.04 119.57,-176.39 116.4,-182.64"/>
</g>
<!-- ??&#45;&gt;node2 -->
<g id="edge6" class="edge">
<title>??&#45;&gt;node2</title>
<path fill="none" stroke="black" d="M70.05,-142C81.62,-142 95.52,-142 108.49,-142"/>
<polygon fill="black" stroke="black" points="108.63,-145.5 118.63,-142 108.63,-138.5 108.63,-145.5"/>
</g>
<!-- ??&#45;&gt;... -->
<g id="edge10" class="edge">
<title>??&#45;&gt;...</title>
<path fill="none" stroke="black" d="M65.04,-131.33C80.79,-123.34 102.57,-112.3 120.2,-103.36"/>
<polygon fill="black" stroke="black" points="122.16,-106.29 129.5,-98.65 119,-100.05 122.16,-106.29"/>
</g>
<!-- ??&#45;&gt;node2304 -->
<g id="edge14" class="edge">
<title>??&#45;&gt;node2304</title>
<path fill="none" stroke="black" d="M58.81,-126.98C76.42,-109.12 106.05,-79.08 126.84,-57.99"/>
<polygon fill="black" stroke="black" points="129.54,-60.24 134.07,-50.66 124.55,-55.32 129.54,-60.24"/>
</g>
<!-- .. -->
<g id="node3" class="node">
<title>..</title>
<ellipse fill="none" stroke="black" cx="43" cy="-88" rx="27" ry="18"/>
<text text-anchor="middle" x="43" y="-84.3" font-family="Times,serif" font-size="14.00">..</text>
</g>
<!-- ..&#45;&gt;node1 -->
<g id="edge3" class="edge">
<title>..&#45;&gt;node1</title>
<path fill="none" stroke="black" d="M58.81,-103.02C76.73,-121.19 107.08,-151.97 127.92,-173.1"/>
<polygon fill="black" stroke="black" points="125.61,-175.75 135.12,-180.41 130.6,-170.83 125.61,-175.75"/>
</g>
<!-- ..&#45;&gt;node2 -->
<g id="edge7" class="edge">
<title>..&#45;&gt;node2</title>
<path fill="none" stroke="black" d="M65.04,-98.67C80.08,-106.29 100.6,-116.7 117.77,-125.41"/>
<polygon fill="black" stroke="black" points="116.4,-128.64 126.9,-130.04 119.57,-122.39 116.4,-128.64"/>
</g>
<!-- ..&#45;&gt;... -->
<g id="edge11" class="edge">
<title>..&#45;&gt;...</title>
<path fill="none" stroke="black" d="M70.05,-88C83.33,-88 99.7,-88 114.19,-88"/>
<polygon fill="black" stroke="black" points="114.34,-91.5 124.34,-88 114.34,-84.5 114.34,-91.5"/>
</g>
<!-- ..&#45;&gt;node2304 -->
<g id="edge15" class="edge">
<title>..&#45;&gt;node2304</title>
<path fill="none" stroke="black" d="M65.04,-77.33C78.82,-70.34 97.22,-61.02 113.41,-52.81"/>
<polygon fill="black" stroke="black" points="115.3,-55.77 122.64,-48.13 112.14,-49.53 115.3,-55.77"/>
</g>
<!-- ??? -->
<g id="node4" class="node">
<title>???</title>
<ellipse fill="none" stroke="black" cx="43" cy="-34" rx="27" ry="18"/>
<text text-anchor="middle" x="43" y="-30.3" font-family="Times,serif" font-size="14.00">???</text>
</g>
<!-- ???&#45;&gt;node1 -->
<g id="edge4" class="edge">
<title>???&#45;&gt;node1</title>
<path fill="none" stroke="black" d="M54.8,-50.42C73.44,-78.78 111.77,-137.09 133.85,-170.67"/>
<polygon fill="black" stroke="black" points="130.93,-172.61 139.35,-179.05 136.78,-168.77 130.93,-172.61"/>
</g>
<!-- ???&#45;&gt;node2 -->
<g id="edge8" class="edge">
<title>???&#45;&gt;node2</title>
<path fill="none" stroke="black" d="M58.81,-49.02C76.73,-67.19 107.08,-97.97 127.92,-119.1"/>
<polygon fill="black" stroke="black" points="125.61,-121.75 135.12,-126.41 130.6,-116.83 125.61,-121.75"/>
</g>
<!-- ???&#45;&gt;... -->
<g id="edge12" class="edge">
<title>???&#45;&gt;...</title>
<path fill="none" stroke="black" d="M65.04,-44.67C80.79,-52.66 102.57,-63.7 120.2,-72.64"/>
<polygon fill="black" stroke="black" points="119,-75.95 129.5,-77.35 122.16,-69.71 119,-75.95"/>
</g>
<!-- ???&#45;&gt;node2304 -->
<g id="edge16" class="edge">
<title>???&#45;&gt;node2304</title>
<path fill="none" stroke="black" d="M70.05,-34C77.84,-34 86.68,-34 95.59,-34"/>
<polygon fill="black" stroke="black" points="95.62,-37.5 105.62,-34 95.62,-30.5 95.62,-37.5"/>
</g>
<!-- y1 -->
<g id="node9" class="node">
<title>y1</title>
<ellipse fill="none" stroke="black" cx="275.99" cy="-142" rx="27" ry="18"/>
<text text-anchor="middle" x="275.99" y="-138.3" font-family="Times,serif" font-size="14.00">y1</text>
</g>
<!-- node1&#45;&gt;y1 -->
<g id="edge17" class="edge">
<title>node1&#45;&gt;y1</title>
<path fill="none" stroke="black" d="M177.58,-184.94C196.68,-176.52 223.08,-164.89 243.58,-155.85"/>
<polygon fill="black" stroke="black" points="245.08,-159.01 252.82,-151.77 242.26,-152.61 245.08,-159.01"/>
</g>
<!-- y2 -->
<g id="node10" class="node">
<title>y2</title>
<ellipse fill="none" stroke="black" cx="275.99" cy="-88" rx="27" ry="18"/>
<text text-anchor="middle" x="275.99" y="-84.3" font-family="Times,serif" font-size="14.00">y2</text>
</g>
<!-- node1&#45;&gt;y2 -->
<g id="edge21" class="edge">
<title>node1&#45;&gt;y2</title>
<path fill="none" stroke="black" d="M169.53,-180.98C190.79,-162.24 227.28,-130.07 251.27,-108.92"/>
<polygon fill="black" stroke="black" points="253.7,-111.44 258.88,-102.2 249.07,-106.19 253.7,-111.44"/>
</g>
<!-- node2&#45;&gt;y1 -->
<g id="edge18" class="edge">
<title>node2&#45;&gt;y1</title>
<path fill="none" stroke="black" d="M184.04,-142C200.71,-142 221.26,-142 238.6,-142"/>
<polygon fill="black" stroke="black" points="238.92,-145.5 248.92,-142 238.92,-138.5 238.92,-145.5"/>
</g>
<!-- node2&#45;&gt;y2 -->
<g id="edge22" class="edge">
<title>node2&#45;&gt;y2</title>
<path fill="none" stroke="black" d="M177.58,-130.94C196.68,-122.52 223.08,-110.89 243.58,-101.85"/>
<polygon fill="black" stroke="black" points="245.08,-105.01 252.82,-97.77 242.26,-98.61 245.08,-105.01"/>
</g>
<!-- ...&#45;&gt;y1 -->
<g id="edge19" class="edge">
<title>...&#45;&gt;y1</title>
<path fill="none" stroke="black" d="M174.4,-97.65C193.61,-106.13 221.79,-118.55 243.44,-128.09"/>
<polygon fill="black" stroke="black" points="242.31,-131.42 252.87,-132.25 245.13,-125.01 242.31,-131.42"/>
</g>
<!-- ...&#45;&gt;y2 -->
<g id="edge23" class="edge">
<title>...&#45;&gt;y2</title>
<path fill="none" stroke="black" d="M178.77,-88C196.21,-88 219.34,-88 238.55,-88"/>
<polygon fill="black" stroke="black" points="238.76,-91.5 248.76,-88 238.76,-84.5 238.76,-91.5"/>
</g>
<!-- node2304&#45;&gt;y1 -->
<g id="edge20" class="edge">
<title>node2304&#45;&gt;y1</title>
<path fill="none" stroke="black" d="M171.1,-50.4C192.53,-69.3 227.8,-100.39 251.21,-121.03"/>
<polygon fill="black" stroke="black" points="249.14,-123.87 258.95,-127.86 253.77,-118.62 249.14,-123.87"/>
</g>
<!-- node2304&#45;&gt;y2 -->
<g id="edge24" class="edge">
<title>node2304&#45;&gt;y2</title>
<path fill="none" stroke="black" d="M182.46,-47.21C201.04,-55.4 224.86,-65.9 243.69,-74.2"/>
<polygon fill="black" stroke="black" points="242.46,-77.48 253.02,-78.31 245.28,-71.08 242.46,-77.48"/>
</g>
</g>
</svg>
