<?xml version="1.0" encoding="UTF-8" standalone="no"?>
<!DOCTYPE svg PUBLIC "-//W3C//DTD SVG 1.1//EN"
 "http://www.w3.org/Graphics/SVG/1.1/DTD/svg11.dtd">
<!-- Generated by graphviz version 2.43.0 (0)
 -->
<!-- Title: G Pages: 1 -->
<svg width="341pt" height="261pt"
 viewBox="0.00 0.00 340.99 261.00" xmlns="http://www.w3.org/2000/svg" xmlns:xlink="http://www.w3.org/1999/xlink">
<g id="graph0" class="graph" transform="scale(1 1) rotate(0) translate(4 257)">
<title>G</title>
<polygon fill="white" stroke="transparent" points="-4,4 -4,-257 336.99,-257 336.99,4 -4,4"/>
<g id="clust1" class="cluster">
<title>cluster_1</title>
<polygon fill="lightgrey" stroke="lightgrey" points="8,-8 8,-245 81.19,-245 81.19,-8 8,-8"/>
<text text-anchor="middle" x="44.6" y="-229.8" font-family="Times,serif" font-size="14.00">Layer 0</text>
</g>
<g id="clust2" class="cluster">
<title>cluster_2</title>
<polygon fill="lightgrey" stroke="lightgrey" points="101.19,-8 101.19,-245 199.99,-245 199.99,-8 101.19,-8"/>
<text text-anchor="middle" x="150.59" y="-229.8" font-family="Times,serif" font-size="14.00">Layer 1: ReLU</text>
</g>
<g id="clust3" class="cluster">
<title>cluster_3</title>
<polygon fill="lightgrey" stroke="lightgrey" points="219.99,-89 219.99,-164 332.99,-164 332.99,-89 219.99,-89"/>
<text text-anchor="middle" x="276.49" y="-148.8" font-family="Times,serif" font-size="14.00">Layer 2: Sigmoid</text>
</g>
<!-- x1 -->
<g id="node1" class="node">
<title>x1</title>
<ellipse fill="none" stroke="black" cx="44.6" cy="-196" rx="27" ry="18"/>
<text text-anchor="middle" x="44.6" y="-192.3" font-family="Times,serif" font-size="14.00">x1</text>
</g>
<!-- node1 -->
<g id="node5" class="node">
<title>node1</title>
<ellipse fill="none" stroke="black" cx="150.59" cy="-196" rx="32.49" ry="18"/>
<text text-anchor="middle" x="150.59" y="-192.3" font-family="Times,serif" font-size="14.00">node1</text>
</g>
<!-- x1&#45;&gt;node1 -->
<g id="edge1" class="edge">
<title>x1&#45;&gt;node1</title>
<path fill="none" stroke="black" d="M71.84,-196C82.64,-196 95.42,-196 107.46,-196"/>
<polygon fill="black" stroke="black" points="107.79,-199.5 117.79,-196 107.79,-192.5 107.79,-199.5"/>
</g>
<!-- node2 -->
<g id="node6" class="node">
<title>node2</title>
<ellipse fill="none" stroke="black" cx="150.59" cy="-142" rx="32.49" ry="18"/>
<text text-anchor="middle" x="150.59" y="-138.3" font-family="Times,serif" font-size="14.00">node2</text>
</g>
<!-- x1&#45;&gt;node2 -->
<g id="edge5" class="edge">
<title>x1&#45;&gt;node2</title>
<path fill="none" stroke="black" d="M66.64,-185.07C81.13,-177.55 100.66,-167.41 117.13,-158.86"/>
<polygon fill="black" stroke="black" points="119.15,-161.75 126.41,-154.04 115.92,-155.54 119.15,-161.75"/>
</g>
<!-- ... -->
<g id="node7" class="node">
<title>...</title>
<ellipse fill="none" stroke="black" cx="150.59" cy="-88" rx="27" ry="18"/>
<text text-anchor="middle" x="150.59" y="-84.3" font-family="Times,serif" font-size="14.00">...</text>
</g>
<!-- x1&#45;&gt;... -->
<g id="edge9" class="edge">
<title>x1&#45;&gt;...</title>
<path fill="none" stroke="black" d="M60.06,-180.98C77.75,-162.61 107.87,-131.33 128.23,-110.18"/>
<polygon fill="black" stroke="black" points="130.84,-112.52 135.25,-102.89 125.8,-107.67 130.84,-112.52"/>
</g>
<!-- node30 -->
<g id="node8" class="node">
<title>node30</title>
<ellipse fill="none" stroke="black" cx="150.59" cy="-34" rx="36.29" ry="18"/>
<text text-anchor="middle" x="150.59" y="-30.3" font-family="Times,serif" font-size="14.00">node30</text>
</g>
<!-- x1&#45;&gt;node30 -->
<g id="edge13" class="edge">
<title>x1&#45;&gt;node30</title>
<path fill="none" stroke="black" d="M56.14,-179.58C74.17,-151.49 111.07,-94 132.72,-60.28"/>
<polygon fill="black" stroke="black" points="135.94,-61.75 138.39,-51.45 130.04,-57.97 135.94,-61.75"/>
</g>
<!-- x2 -->
<g id="node2" class="node">
<title>x2</title>
<ellipse fill="none" stroke="black" cx="44.6" cy="-142" rx="27" ry="18"/>
<text text-anchor="middle" x="44.6" y="-138.3" font-family="Times,serif" font-size="14.00">x2</text>
</g>
<!-- x2&#45;&gt;node1 -->
<g id="edge2" class="edge">
<title>x2&#45;&gt;node1</title>
<path fill="none" stroke="black" d="M66.64,-152.93C81.13,-160.45 100.66,-170.59 117.13,-179.14"/>
<polygon fill="black" stroke="black" points="115.92,-182.46 126.41,-183.96 119.15,-176.25 115.92,-182.46"/>
</g>
<!-- x2&#45;&gt;node2 -->
<g id="edge6" class="edge">
<title>x2&#45;&gt;node2</title>
<path fill="none" stroke="black" d="M71.84,-142C82.64,-142 95.42,-142 107.46,-142"/>
<polygon fill="black" stroke="black" points="107.79,-145.5 117.79,-142 107.79,-138.5 107.79,-145.5"/>
</g>
<!-- x2&#45;&gt;... -->
<g id="edge10" class="edge">
<title>x2&#45;&gt;...</title>
<path fill="none" stroke="black" d="M66.64,-131.07C81.87,-123.17 102.65,-112.37 119.61,-103.57"/>
<polygon fill="black" stroke="black" points="121.32,-106.63 128.58,-98.91 118.09,-100.41 121.32,-106.63"/>
</g>
<!-- x2&#45;&gt;node30 -->
<g id="edge14" class="edge">
<title>x2&#45;&gt;node30</title>
<path fill="none" stroke="black" d="M60.06,-126.98C77.36,-109.02 106.52,-78.73 126.85,-57.62"/>
<polygon fill="black" stroke="black" points="129.48,-59.93 133.9,-50.3 124.44,-55.08 129.48,-59.93"/>
</g>
<!-- .. -->
<g id="node3" class="node">
<title>..</title>
<ellipse fill="none" stroke="black" cx="44.6" cy="-88" rx="27" ry="18"/>
<text text-anchor="middle" x="44.6" y="-84.3" font-family="Times,serif" font-size="14.00">..</text>
</g>
<!-- ..&#45;&gt;node1 -->
<g id="edge3" class="edge">
<title>..&#45;&gt;node1</title>
<path fill="none" stroke="black" d="M60.06,-103.02C77.45,-121.08 106.86,-151.62 127.2,-172.74"/>
<polygon fill="black" stroke="black" points="124.78,-175.28 134.24,-180.06 129.82,-170.43 124.78,-175.28"/>
</g>
<!-- ..&#45;&gt;node2 -->
<g id="edge7" class="edge">
<title>..&#45;&gt;node2</title>
<path fill="none" stroke="black" d="M66.64,-98.93C81.13,-106.45 100.66,-116.59 117.13,-125.14"/>
<polygon fill="black" stroke="black" points="115.92,-128.46 126.41,-129.96 119.15,-122.25 115.92,-128.46"/>
</g>
<!-- ..&#45;&gt;... -->
<g id="edge11" class="edge">
<title>..&#45;&gt;...</title>
<path fill="none" stroke="black" d="M71.84,-88C84.4,-88 99.65,-88 113.3,-88"/>
<polygon fill="black" stroke="black" points="113.36,-91.5 123.36,-88 113.36,-84.5 113.36,-91.5"/>
</g>
<!-- ..&#45;&gt;node30 -->
<g id="edge15" class="edge">
<title>..&#45;&gt;node30</title>
<path fill="none" stroke="black" d="M66.64,-77.07C80.73,-69.76 99.59,-59.96 115.76,-51.56"/>
<polygon fill="black" stroke="black" points="117.66,-54.52 124.92,-46.81 114.43,-48.31 117.66,-54.52"/>
</g>
<!-- x784 -->
<g id="node4" class="node">
<title>x784</title>
<ellipse fill="none" stroke="black" cx="44.6" cy="-34" rx="28.7" ry="18"/>
<text text-anchor="middle" x="44.6" y="-30.3" font-family="Times,serif" font-size="14.00">x784</text>
</g>
<!-- x784&#45;&gt;node1 -->
<g id="edge4" class="edge">
<title>x784&#45;&gt;node1</title>
<path fill="none" stroke="black" d="M56.33,-50.73C74.55,-79.1 111.62,-136.85 133.13,-170.36"/>
<polygon fill="black" stroke="black" points="130.41,-172.6 138.76,-179.12 136.3,-168.82 130.41,-172.6"/>
</g>
<!-- x784&#45;&gt;node2 -->
<g id="edge8" class="edge">
<title>x784&#45;&gt;node2</title>
<path fill="none" stroke="black" d="M60.5,-49.47C78,-67.66 107.22,-97.99 127.4,-118.95"/>
<polygon fill="black" stroke="black" points="124.92,-121.43 134.38,-126.2 129.97,-116.57 124.92,-121.43"/>
</g>
<!-- x784&#45;&gt;... -->
<g id="edge12" class="edge">
<title>x784&#45;&gt;...</title>
<path fill="none" stroke="black" d="M67.15,-45.19C82.41,-53.11 103.07,-63.84 119.89,-72.58"/>
<polygon fill="black" stroke="black" points="118.29,-75.69 128.78,-77.19 121.52,-69.48 118.29,-75.69"/>
</g>
<!-- x784&#45;&gt;node30 -->
<g id="edge16" class="edge">
<title>x784&#45;&gt;node30</title>
<path fill="none" stroke="black" d="M73.47,-34C82.85,-34 93.59,-34 103.97,-34"/>
<polygon fill="black" stroke="black" points="104.18,-37.5 114.18,-34 104.18,-30.5 104.18,-37.5"/>
</g>
<!-- y -->
<g id="node9" class="node">
<title>y</title>
<ellipse fill="none" stroke="black" cx="275.99" cy="-115" rx="27" ry="18"/>
<text text-anchor="middle" x="275.99" y="-111.3" font-family="Times,serif" font-size="14.00">y</text>
</g>
<!-- node1&#45;&gt;y -->
<g id="edge17" class="edge">
<title>node1&#45;&gt;y</title>
<path fill="none" stroke="black" d="M172.25,-182.44C192.84,-168.92 224.6,-148.08 247.35,-133.14"/>
<polygon fill="black" stroke="black" points="249.45,-135.95 255.89,-127.54 245.61,-130.1 249.45,-135.95"/>
</g>
<!-- node2&#45;&gt;y -->
<g id="edge18" class="edge">
<title>node2&#45;&gt;y</title>
<path fill="none" stroke="black" d="M181.15,-135.53C198.84,-131.66 221.41,-126.72 239.99,-122.66"/>
<polygon fill="black" stroke="black" points="240.82,-126.06 249.84,-120.5 239.32,-119.22 240.82,-126.06"/>
</g>
<!-- ...&#45;&gt;y -->
<g id="edge19" class="edge">
<title>...&#45;&gt;y</title>
<path fill="none" stroke="black" d="M176.56,-93.46C194.88,-97.47 219.98,-102.96 240.25,-107.4"/>
<polygon fill="black" stroke="black" points="239.54,-110.83 250.05,-109.54 241.03,-103.99 239.54,-110.83"/>
</g>
<!-- node30&#45;&gt;y -->
<g id="edge20" class="edge">
<title>node30&#45;&gt;y</title>
<path fill="none" stroke="black" d="M173.37,-48.29C194.14,-61.93 225.48,-82.5 247.86,-97.19"/>
<polygon fill="black" stroke="black" points="245.97,-100.14 256.25,-102.7 249.81,-94.29 245.97,-100.14"/>
</g>
</g>
</svg>
